<svg width="1921" height="1080" viewBox="0 0 1921 1080" fill="none" xmlns="http://www.w3.org/2000/svg">
<rect width="1920" height="1080" fill="#39A2DB"/>
<path d="M0 0H189.37C167.666 18.8297 146.342 38.1938 124.624 57.0516C122.12 59.2313 119.645 61.4531 117.31 63.8297C116.396 65.7844 117.436 68.5125 117.901 70.4953C133.865 117.802 149.591 165.488 165.458 212.864C167.793 220.317 170.198 227.686 173.503 234.788L173.939 235.814C168.482 235.659 163.01 236.109 157.538 236.095C146.806 236.264 136.538 235.027 125.932 237.417C116.016 238.345 106.113 237.727 96.1688 238.345C88.0668 238.641 79.782 239.47 71.6941 238.767C68.4026 238.823 66.0677 234.802 64.1266 232.58C47.4303 209.925 30.0026 187.847 13.2642 165.234C9.0444 159.413 4.30418 154.027 0 148.289V0Z" fill="#389FD7"/>
<path d="M189.369 0H224.942C227.91 21.8812 230.526 43.8469 233.719 65.7141C233.579 68.4703 233.354 71.1984 233.143 73.9547C218.655 73.0125 204.406 70.6359 189.89 70.2141C179.509 69.8766 169.325 67.95 158.945 67.5984C145.132 67.1203 131.052 65.1516 117.31 63.8297C119.645 61.4531 122.12 59.2312 124.624 57.0516C146.342 38.1937 167.666 18.8297 189.369 0Z" fill="#3BA7E2"/>
<path d="M224.942 0H272.246C260.248 23.9484 248.081 47.8687 236.336 71.9437C235.492 69.8484 234.563 67.7953 233.72 65.7141C230.527 43.8469 227.91 21.8813 224.942 0Z" fill="#389ED7"/>
<path d="M272.246 0H306.244L307.116 0.970312L307.777 1.77187C320.914 19.4766 334.98 36.4922 347.808 54.4078C320.028 59.3437 292.234 64.1812 264.44 68.9484C255.241 70.5516 246.126 72.3516 236.856 73.4344L236.336 71.9437C248.081 47.8687 260.248 23.9484 272.246 0Z" fill="#3AA5E0"/>
<path d="M306.243 0H445.369C433.737 7.81875 421.021 13.5844 409.037 20.8125C397.475 27 386.124 33.5391 374.674 39.9234C366.347 44.6344 357.879 48.8109 349.904 54.1266C361.663 59.8641 374.716 62.775 386.982 67.3453C409.431 75.6984 432.415 82.4766 454.878 90.8016C468.888 95.625 483.01 100.181 497.048 104.948C503.799 107.423 510.438 110.011 517.514 111.487C515.221 107.198 512.759 103.008 510.044 98.9719C497.666 80.3531 485.556 61.5516 473.473 42.7219C463.852 28.7016 454.864 14.3016 445.693 0H906.605C901.106 10.3359 896.351 21.0797 890.697 31.3313C882.088 46.4344 875.027 62.3391 866.841 77.6813C863.198 84.2625 860.666 91.9969 855.982 97.875C853.535 98.5641 850.736 98.3391 848.218 98.1703C814.488 94.1625 780.645 90.8016 746.887 86.9484C741.612 86.3156 736.323 86.0203 731.006 85.8656C735.845 94.1625 742.118 101.081 747.984 108.619C774.02 142.27 800.59 175.584 826.444 209.377C818.102 211.064 809.691 212.119 801.237 213.005C769.463 216.731 737.702 220.655 705.913 224.409C699.119 225.253 692.353 226.153 685.517 226.561C683.745 226.322 681.972 226.111 680.2 225.928C691.875 191.433 704.323 157.177 716.49 122.864C720.626 110.489 725.928 98.3391 728.953 85.6687C696.77 90.45 664.896 97.3969 632.756 102.403C626.581 104.161 622.938 109.097 618.155 113.161C610.602 119.686 604.061 127.223 596.409 133.622C589.222 139.584 583.145 146.658 575.915 152.578C566.491 160.242 560.527 169.552 549.443 175.247C528.386 185.991 507.766 197.494 486.765 208.322C476.174 213.975 465.695 219.923 454.822 225.014C446.241 212.217 438.716 198.731 430.234 185.864C409.459 152.677 389.12 119.222 368.204 86.1047C361.775 75.9797 356.093 65.5172 348.849 55.9125L347.808 54.4078C334.98 36.4922 320.914 19.4766 307.776 1.77187L307.115 0.970312L306.243 0Z" fill="#39A1DB"/>
<path d="M445.37 0H445.693C454.864 14.3016 463.852 28.7016 473.474 42.7219C485.556 61.5516 497.667 80.3531 510.045 98.9719C512.76 103.008 515.221 107.198 517.514 111.487C510.439 110.011 503.8 107.423 497.048 104.948C483.01 100.181 468.888 95.625 454.878 90.8016C432.415 82.4766 409.431 75.6984 386.982 67.3453C374.717 62.775 361.663 59.8641 349.904 54.1266C357.88 48.8109 366.347 44.6344 374.674 39.9234C386.124 33.5391 397.475 27 409.037 20.8125C421.022 13.5844 433.737 7.81875 445.37 0Z" fill="#369BD1"/>
<path d="M906.606 0H1076.83C1059.64 30.15 1042.71 59.8781 1025.46 90.0422C1021.93 96.0469 1018.43 102.052 1015.46 108.366C1017.46 108.422 1019.46 108.45 1021.45 108.45C1019.19 109.434 1016.95 110.503 1014.8 111.727C1009.4 118.702 1006.07 127.673 1002.25 135.619C992.338 157.57 981.62 179.17 971.97 201.234C975.571 210.839 980.185 220.106 984.405 229.472C991.663 244.828 998.077 260.536 1005.43 275.836C1007.51 280.139 1009.27 284.569 1010.9 289.069C988.695 297.816 966.569 306.773 944.274 315.337C933.275 319.387 922.472 324.998 911.065 327.572C910.333 327.755 909.588 327.923 908.842 328.092C901.88 317.981 894.776 307.955 887.814 297.844C872.496 274.837 856.25 252.464 840.932 229.458C836.262 222.637 831.395 215.972 826.444 209.377C800.591 175.584 774.02 142.27 747.984 108.619C742.119 101.081 735.846 94.1625 731.007 85.8656C736.324 86.0203 741.613 86.3156 746.887 86.9484C780.645 90.8016 814.488 94.1625 848.218 98.1703C850.736 98.3391 853.535 98.5641 855.983 97.875C860.667 91.9969 863.198 84.2625 866.842 77.6812C875.028 62.3391 882.089 46.4344 890.697 31.3312C896.352 21.0797 901.106 10.3359 906.606 0ZM828.329 209.377C837.866 210.023 847.135 208.561 856.616 208.012C885.226 205.889 913.808 204.82 942.418 202.697C951.786 202.43 961.055 202.219 970.325 200.686C943.416 176.175 915.889 152.353 888.827 128.025C877.813 119.123 867.911 109.012 856.967 100.027C856.025 101.967 855.195 103.936 854.52 105.989C846.826 135.197 839.469 164.292 831.86 193.486C830.397 198.745 829.201 203.991 828.329 209.377Z" fill="#379BD2"/>
<path d="M1076.83 0H1115.23C1122.42 29.2359 1128.86 58.7109 1135.92 87.9609C1135.56 88.5234 1135.21 89.1 1134.84 89.6766C1097.04 95.8922 1059.26 102.291 1021.45 108.45C1019.46 108.45 1017.46 108.422 1015.46 108.366C1018.43 102.052 1021.93 96.0469 1025.46 90.0422C1042.71 59.8781 1059.64 30.15 1076.83 0Z" fill="#3AA7E1"/>
<path d="M1115.23 0H1175.97C1171.61 8.55 1168.25 17.5219 1164.24 26.2828C1156.6 43.1578 1149.4 60.2156 1142.03 77.2172C1140.37 81.0141 1138.17 84.4875 1135.92 87.9609C1128.86 58.7109 1122.42 29.2359 1115.23 0Z" fill="#379CD3"/>
<path d="M1175.97 0H1329.54C1321.02 16.3969 1315.25 34.7344 1307.46 51.4687C1303.01 61.2703 1299.57 71.4516 1295.15 81.2531C1291.11 90.3094 1287.6 99.5625 1283.64 108.661C1278.59 107.859 1273.57 106.917 1268.48 106.341C1236.65 102.6 1204.92 98.1141 1173.08 94.3734C1160.95 92.925 1149.14 90.6187 1136.89 90.2391C1142.83 115.805 1149.57 141.216 1155.67 166.739C1157.89 175.894 1160.62 184.866 1162.16 194.175C1139.1 194.92 1115.99 194.302 1092.92 194.541C1077.31 194.33 1061.65 195.033 1046.07 194.175C1051.37 186.23 1058 179.592 1064.2 172.392C1083.78 149.78 1103.57 127.336 1123.05 104.639C1127.4 99.9281 1131.66 95.2875 1134.84 89.6766C1135.21 89.1 1135.56 88.5234 1135.92 87.9609C1138.17 84.4875 1140.37 81.0141 1142.03 77.2172C1149.4 60.2156 1156.6 43.1578 1164.24 26.2828C1168.25 17.5219 1171.61 8.55 1175.97 0Z" fill="#39A3DC"/>
<path d="M1329.54 0H1342.65C1349.58 22.6406 1357.12 45.0844 1364.21 67.6828C1369.78 84.6141 1374.56 101.728 1380.53 118.519C1348.71 115.27 1316.91 111.122 1285.01 108.83L1283.64 108.661C1287.6 99.5625 1291.11 90.3094 1295.15 81.2531C1299.57 71.4516 1303.01 61.2703 1307.46 51.4687C1315.25 34.7344 1321.02 16.3969 1329.54 0Z" fill="#379ED6"/>
<path d="M1342.65 0H1428.28C1423.91 8.31094 1420.9 17.5219 1417.35 26.2406C1405 56.9672 1392.85 87.7781 1380.53 118.519C1374.57 101.728 1369.78 84.6141 1364.21 67.6828C1357.12 45.0844 1349.58 22.6406 1342.65 0Z" fill="#369AD0"/>
<path d="M1428.28 0H1492.14L1493 0.928125L1493.66 1.70156C1505.27 16.7203 1517.38 31.3594 1529.05 46.35C1535.16 53.7047 1540.78 61.4531 1547.04 68.6813C1563.27 50.6672 1578.7 31.9219 1594.64 13.6266C1598.54 9.23906 1602.12 4.6125 1605.74 0H1606.16C1609.04 11.9953 1614 23.0906 1618 34.6922C1621.73 45.8016 1625.82 56.7422 1629.95 67.6969C1632.7 74.7422 1634.07 82.8844 1639.17 88.4953L1640 88.3969C1637.15 92.2922 1634.55 96.3422 1632.48 100.73C1625.85 114.623 1618.64 128.25 1612.03 142.158C1600.3 166.795 1588.1 191.236 1575.82 215.606C1573.87 219.558 1572.23 223.65 1570.28 227.587C1555.23 239.512 1539.77 250.988 1524.7 262.913C1510.16 273.797 1496.04 285.37 1481.1 295.692C1473.98 259.931 1467.39 224.044 1460.44 188.241C1458.92 180.886 1458.61 173.447 1454.98 166.809L1453.84 165.248C1449.66 160.538 1444.51 157.655 1439.18 154.505C1428.34 148.036 1417.72 141.187 1406.85 134.789C1397.56 129.347 1389.85 123.384 1380.19 119.348L1380.53 118.519C1392.85 87.7781 1405 56.9672 1417.35 26.2406C1420.9 17.5219 1423.91 8.31094 1428.28 0Z" fill="#38A0D9"/>
<path d="M1492.14 0H1605.74C1602.12 4.6125 1598.54 9.23906 1594.64 13.6266C1578.7 31.9219 1563.27 50.6672 1547.04 68.6812C1540.78 61.4531 1535.16 53.7047 1529.05 46.35C1517.38 31.3594 1505.27 16.7203 1493.66 1.70156L1493 0.928125L1492.14 0Z" fill="#3CAAE6"/>
<path d="M1606.16 0H1698.63C1684.94 21.1922 1670.22 41.6391 1656.39 62.7328C1650.75 71.3953 1644.69 79.7625 1639.17 88.4953C1634.07 82.8844 1632.7 74.7422 1629.95 67.6969C1625.82 56.7422 1621.73 45.8016 1618 34.6922C1613.99 23.0906 1609.04 11.9953 1606.16 0Z" fill="#379CD3"/>
<path d="M1698.63 0H1814.98C1792.46 18.1688 1770.34 36.9422 1747.69 54.9703C1746.71 55.7438 1745.7 56.5031 1744.68 57.2344C1741.46 58.6969 1737.96 59.7656 1734.57 60.7781C1708.98 68.4281 1683.37 75.9797 1657.8 83.7141C1651.85 85.5 1646.16 87.3844 1640 88.3969L1639.17 88.4953C1644.69 79.7625 1650.75 71.3953 1656.39 62.7328C1670.22 41.6391 1684.94 21.1922 1698.63 0Z" fill="#39A3DC"/>
<path d="M1814.98 0H1839.57C1845.58 24.7219 1850.88 49.5984 1857.12 74.2641C1858.19 78.5531 1858.97 82.8984 1859.66 87.2578C1849.6 85.6266 1840.09 82.2516 1830.22 79.8609C1821.99 77.8078 1813.73 75.8531 1805.54 73.5891C1786.5 68.2313 1767.19 63.7031 1748.2 58.1484C1748.03 57.0797 1747.86 56.025 1747.69 54.9703C1770.34 36.9422 1792.46 18.1688 1814.98 0Z" fill="#369AD1"/>
<path d="M1839.57 0H1920V221.977C1908.4 219.727 1896.57 218.475 1884.86 216.788C1858.52 213.258 1832.2 209.419 1805.85 205.889C1801.33 205.284 1796.84 204.469 1792.37 203.555C1787.05 190.308 1783.76 176.794 1779.16 163.294C1773.33 146.011 1768.12 128.545 1762.29 111.263C1756.48 93.2484 1751.14 75.0375 1744.68 57.2344C1745.69 56.5031 1746.71 55.7438 1747.69 54.9703C1747.86 56.025 1748.03 57.0797 1748.2 58.1484C1767.19 63.7031 1786.5 68.2313 1805.54 73.5891C1813.73 75.8531 1821.99 77.8078 1830.22 79.8609C1840.09 82.2516 1849.6 85.6266 1859.66 87.2578C1858.97 82.8984 1858.19 78.5531 1857.12 74.2641C1850.88 49.5984 1845.58 24.7219 1839.57 0Z" fill="#39A1D9"/>
<path d="M347.808 54.4078L348.849 55.9125C346.233 68.6812 345.403 81.5766 343.715 94.4578C339.79 119.109 339.214 144.759 333.63 168.919C308.325 178.959 283.513 190.266 258.363 200.7C230.287 212.33 202.563 224.916 174.375 236.236L173.939 235.814L173.503 234.788C180.55 217.842 186.669 200.503 193.336 183.389C204.35 154.561 215.18 125.648 226.321 96.8625C229.598 88.6359 231.272 80.5781 236.856 73.4344C246.125 72.3516 255.24 70.5516 264.439 68.9484C292.233 64.1812 320.028 59.3437 347.808 54.4078Z" fill="#3699CF"/>
<path d="M348.849 55.9125C356.093 65.5172 361.776 75.9797 368.204 86.1047C389.12 119.222 409.459 152.677 430.235 185.864C438.716 198.731 446.242 212.217 454.822 225.014C465.695 219.923 476.174 213.975 486.766 208.322C507.766 197.494 528.387 185.991 549.443 175.247C560.527 169.552 566.491 160.242 575.916 152.578C583.145 146.658 589.222 139.584 596.41 133.622C604.062 127.223 610.602 119.686 618.156 113.161C622.938 109.097 626.581 104.161 632.756 102.403C631.954 103.584 631.138 104.766 630.323 105.947C637.327 125.438 645.88 144.394 653.377 163.702C661.394 184.528 670.65 204.933 678.076 225.984L677.289 225.998C671.395 224.944 665.628 221.513 660.114 219.108C628.677 205.059 597.211 191.025 565.957 176.625C562.764 175.233 559.472 174.206 556.167 173.152C547.404 184.303 542.903 198.872 536.404 211.416C523.689 236.011 512.464 261.309 499.819 285.933C491.801 303.075 483.685 320.133 474.908 336.895C468.058 300.066 461.503 263.123 455.019 226.209C446.34 230.752 439.167 237.009 431.191 242.606C415.297 253.969 399.81 266.063 383.62 277.003C366.038 283.852 348.174 289.941 330.549 296.677C313.909 302.85 297.269 309.22 280.531 315.084L279.321 314.747C287.395 291.642 296.707 268.945 304.935 245.897C311.49 228.938 317.918 211.936 324.36 194.934C327.3 186.216 331.154 177.764 333.63 168.919C339.214 144.759 339.791 119.109 343.715 94.4578C345.403 81.5766 346.233 68.6813 348.849 55.9125Z" fill="#369BD2"/>
<path d="M1744.68 57.2344C1751.14 75.0375 1756.48 93.2484 1762.29 111.263C1768.12 128.545 1773.34 146.011 1779.16 163.294C1783.76 176.794 1787.05 190.308 1792.37 203.555C1796.84 204.469 1801.33 205.284 1805.86 205.889C1832.2 209.419 1858.52 213.258 1884.86 216.788C1896.57 218.475 1908.4 219.727 1920 221.977V356.513C1907.78 344.123 1895.34 331.917 1883.06 319.57C1877.55 314.156 1872.37 308.236 1866.41 303.497C1860.12 309.234 1855.72 316.083 1850.47 322.861C1838.56 338.133 1827.04 353.714 1815 368.902C1809.32 375.919 1804.39 383.639 1798.25 390.248C1790.66 378.998 1786.67 365.119 1780.97 352.8C1775.56 341.086 1770.78 329.119 1765.58 317.334C1764.21 313.72 1761.31 313.959 1758.05 313.017C1759.47 312.581 1760.9 312.131 1762.31 311.653C1746.31 287.972 1730.81 263.939 1714.93 240.173C1710.83 234.281 1707.28 227.616 1702.49 222.3L1702.12 222.202C1701.35 222.033 1700.57 221.878 1699.78 221.752C1695.33 221.048 1691.04 220.472 1686.51 220.795C1671.54 222.117 1656.53 223.411 1641.5 223.805C1625.64 224.916 1609.79 225.928 1593.94 226.997C1586.05 227.798 1578.2 228.136 1570.28 227.588C1572.23 223.65 1573.87 219.558 1575.82 215.606C1588.1 191.236 1600.3 166.795 1612.03 142.158C1618.64 128.25 1625.85 114.623 1632.48 100.73C1634.55 96.3422 1637.15 92.2922 1640 88.3969C1646.16 87.3844 1651.85 85.5 1657.8 83.7141C1683.37 75.9797 1708.98 68.4281 1734.57 60.7781C1737.96 59.7656 1741.46 58.6969 1744.68 57.2344Z" fill="#3699CF"/>
<path d="M117.31 63.8297C131.053 65.1516 145.133 67.1203 158.945 67.5984C169.326 67.95 179.51 69.8766 189.89 70.2141C204.406 70.6359 218.655 73.0125 233.143 73.9547C233.354 71.1984 233.579 68.4703 233.72 65.7141C234.564 67.7953 235.492 69.8484 236.336 71.9438L236.857 73.4344C231.272 80.5781 229.599 88.6359 226.321 96.8625C215.181 125.648 204.35 154.561 193.337 183.389C186.669 200.503 180.551 217.842 173.504 234.788C170.198 227.686 167.793 220.317 165.458 212.864C149.592 165.487 133.866 117.802 117.901 70.4953C117.437 68.5125 116.396 65.7844 117.31 63.8297Z" fill="#3AA3DD"/>
<path d="M728.953 85.6687C725.928 98.3391 720.626 110.489 716.49 122.864C704.323 157.177 691.875 191.433 680.2 225.928C679.483 225.942 678.779 225.956 678.076 225.984C670.649 204.933 661.394 184.528 653.376 163.702C645.879 144.394 637.327 125.438 630.322 105.947C631.138 104.766 631.954 103.584 632.756 102.403C664.896 97.3969 696.77 90.45 728.953 85.6687Z" fill="#3697CD"/>
<path d="M1134.84 89.6766C1131.66 95.2875 1127.4 99.9281 1123.05 104.639C1103.57 127.336 1083.78 149.78 1064.2 172.392C1058 179.592 1051.37 186.23 1046.07 194.175C1061.65 195.033 1077.31 194.33 1092.92 194.541C1115.99 194.302 1139.1 194.92 1162.16 194.175C1160.62 184.866 1157.89 175.894 1155.67 166.739C1149.57 141.216 1142.83 115.805 1136.89 90.2391C1149.14 90.6188 1160.95 92.925 1173.08 94.3734C1204.92 98.1141 1236.65 102.6 1268.48 106.341C1273.57 106.917 1278.59 107.859 1283.64 108.661L1285.01 108.83C1293.49 121.711 1303.14 133.847 1312.17 146.348C1319.61 156.727 1327.42 166.823 1334.84 177.202C1340.99 185.78 1347.63 193.556 1352.85 202.795C1369.22 231.806 1385.78 260.817 1402.26 289.772C1403.77 292.598 1405.09 295.509 1406.48 298.406L1407.31 300.164C1389.59 340.552 1373.48 381.656 1355.89 422.086C1328.25 416.095 1300.35 411.553 1272.73 405.506C1256.38 402.764 1240.33 398.742 1223.96 396.127C1214.49 394.594 1205.59 391.43 1196.18 390.937C1180.89 391.148 1165.56 394.552 1150.34 396.028C1133.95 397.575 1117.47 400.641 1101.03 400.95C1090.39 400.458 1079.88 401.259 1069.26 400.177C1055.63 398.728 1042.02 399.6 1028.22 399.347C1016.43 399.684 1004.83 397.687 993.055 397.912C979.889 397.786 966.499 398.391 953.417 397.097C945.611 396.352 937.776 396.141 929.955 396.914C932.67 408.727 937.734 419.92 941.166 431.55C948.283 450.984 954.627 470.658 961.28 490.247C968.819 510.286 974.699 530.733 982.576 550.659C972.856 571.205 964.164 592.298 954.922 613.069C947.692 627.806 942.052 643.191 934.541 657.816C916.128 619.214 898.602 580.177 880.513 541.42C876.462 532.87 872.974 524.123 868.304 515.869C862.495 553.387 858.219 591.173 852.761 628.762C851.453 636.919 851.186 645.525 848.809 653.456C848.401 654.328 847.993 655.214 847.557 656.086C842.634 648.872 837.19 641.995 831.986 634.992C811.872 608.203 791.729 581.428 771.685 554.583C768.267 550.308 765.89 544.781 760.348 543.038C759.645 542.77 758.942 542.503 758.238 542.236C759.181 541.589 760.123 540.928 761.066 540.267C764.638 536.175 765.229 529.706 766.678 524.559C778.578 480.431 790.407 436.289 802.377 392.175C809.087 401.991 813.616 412.256 819.144 422.789C824.826 433.462 830.875 443.953 836.459 454.683C841.987 465.848 847.993 476.803 854.069 487.687C858.922 496.181 862.523 505.167 868.178 513.225C876.969 500.091 882.82 484.987 890.486 471.164C898.644 456.553 905.818 441.492 913.329 426.558C917.057 419.105 921.473 412.031 925.215 404.606C929.182 397.955 928.155 392.077 925.721 385.144C920.897 370.392 917.31 355.303 912.373 340.594C910.755 336.066 910.474 332.325 911.065 327.572C922.472 324.998 933.275 319.387 944.274 315.337C966.569 306.773 988.695 297.816 1010.9 289.069C1009.27 284.569 1007.51 280.139 1005.43 275.836C998.077 260.536 991.662 244.828 984.404 229.472C980.185 220.106 975.571 210.839 971.97 201.234C995.953 198.492 1020.2 197.423 1044.13 194.259C1042.96 190.195 1041.75 186.145 1040.27 182.18C1031.61 158.766 1023.68 135.07 1014.8 111.727C1016.95 110.503 1019.19 109.434 1021.45 108.45C1059.26 102.291 1097.04 95.8922 1134.84 89.6766Z" fill="#3597CC"/>
<path d="M856.967 100.027C867.911 109.012 877.813 119.123 888.827 128.025C915.89 152.353 943.417 176.175 970.325 200.686C961.055 202.219 951.786 202.43 942.418 202.697C913.808 204.82 885.226 205.889 856.616 208.013C847.135 208.561 837.866 210.023 828.329 209.377C829.201 203.991 830.397 198.745 831.86 193.486C839.469 164.292 846.826 135.197 854.52 105.989C855.195 103.936 856.025 101.967 856.967 100.027Z" fill="#38A1DA"/>
<path d="M1380.53 118.519L1380.19 119.348C1370.23 144.816 1359.44 170.016 1350.29 195.764C1359.74 194.723 1368.17 191.123 1377.21 188.536C1402.81 180.928 1428.34 173.138 1453.84 165.248L1454.98 166.809C1439.3 210.713 1423.35 254.658 1407.51 298.505L1406.48 298.406C1405.09 295.509 1403.77 292.598 1402.26 289.772C1385.78 260.817 1369.22 231.806 1352.85 202.795C1347.63 193.556 1340.99 185.78 1334.84 177.202C1327.42 166.823 1319.61 156.727 1312.17 146.348C1303.14 133.847 1293.49 121.711 1285.01 108.83C1316.91 111.122 1348.71 115.27 1380.53 118.519Z" fill="#39A3DB"/>
<path d="M1014.8 111.727C1023.68 135.07 1031.61 158.766 1040.27 182.18C1041.75 186.145 1042.96 190.195 1044.13 194.259C1020.2 197.423 995.952 198.492 971.97 201.234C981.619 179.17 992.337 157.57 1002.25 135.619C1006.07 127.673 1009.4 118.702 1014.8 111.727Z" fill="#39A3DC"/>
<path d="M1380.19 119.348C1389.85 123.384 1397.56 129.347 1406.85 134.789C1417.72 141.188 1428.34 148.036 1439.18 154.505C1444.51 157.655 1449.66 160.538 1453.84 165.248C1428.34 173.138 1402.81 180.928 1377.21 188.536C1368.16 191.123 1359.74 194.723 1350.29 195.764C1359.44 170.016 1370.23 144.816 1380.19 119.348Z" fill="#3699D0"/>
<path d="M0 148.289C4.30418 154.027 9.0444 159.412 13.2642 165.234C30.0026 187.847 47.4303 209.925 64.1266 232.58C66.0677 234.802 68.4026 238.823 71.6941 238.767C79.782 239.47 88.0668 238.641 96.1688 238.345C106.113 237.727 116.016 238.345 125.932 237.417C141.264 238.556 156.54 237.319 171.872 237.994C169.635 241.791 167.314 245.545 164.712 249.117C145.245 275.681 126.495 302.766 107.351 329.555C103.483 334.673 99.8119 339.891 96.7314 345.544C153.6 336.769 210.398 326.798 267.267 317.939C271.754 317.25 276.156 316.308 280.531 315.084C297.269 309.22 313.909 302.85 330.549 296.677C348.174 289.941 366.038 283.852 383.62 277.003L384.985 277.777L385.407 278.747C382.115 283.064 379.218 287.55 376.897 292.472C362.592 321.961 346.894 350.733 332.434 380.152C325.894 392.667 319.958 405.534 312.995 417.811C305.315 432.141 298.338 446.906 291.629 461.714C286.537 471.586 282.331 481.781 276.466 491.231C264.383 496.448 251.794 500.372 239.543 505.181C209.259 516.023 179.214 527.597 148.888 538.298C152.025 525.122 158.214 513.506 163.052 500.47C171.647 477.773 180.818 455.316 189.37 432.605C194.152 419.737 199.863 407.109 203.942 394.031C187.372 390.952 171.337 391.402 154.711 389.911C125.173 388.659 95.6624 386.142 66.1239 384.947C53.9569 383.85 41.7618 383.766 29.5947 382.584L28.3007 382.5C26.88 364.486 24.8123 346.542 23.3073 328.528C22.7446 323.733 22.5758 319.162 19.622 315.141C13.3767 306.717 6.24527 298.927 0 290.489V148.289Z" fill="#3595C9"/>
<path d="M1454.98 166.809C1458.61 173.447 1458.92 180.886 1460.44 188.241C1467.39 224.044 1473.98 259.931 1481.1 295.692L1481.42 296.93C1464.28 295.411 1447.6 298.898 1430.51 298.083C1422.83 297.858 1415.17 298.856 1407.51 298.505C1423.35 254.658 1439.3 210.712 1454.98 166.809Z" fill="#3493C7"/>
<path d="M333.63 168.919C331.154 177.764 327.3 186.216 324.36 194.934C317.918 211.936 311.49 228.937 304.935 245.897C296.706 268.945 287.395 291.642 279.321 314.747C274.074 312.384 270.051 308.883 265.579 305.395C238.037 285.173 210.721 264.6 183.18 244.378C179.917 242.016 177.146 239.147 174.375 236.236C202.563 224.916 230.287 212.33 258.363 200.7C283.513 190.266 308.325 178.959 333.63 168.919Z" fill="#38A1DA"/>
<path d="M565.957 176.625C597.211 191.025 628.677 205.059 660.114 219.108C665.628 221.512 671.395 224.944 677.289 225.998C677.626 231.694 677.232 236.883 675.896 242.437C672.141 258.609 669.243 274.964 665.572 291.15C662.182 307.434 659.116 323.719 654.699 339.75C621.883 284.358 588.884 228.6 556.167 173.152C559.472 174.206 562.764 175.233 565.957 176.625Z" fill="#3AA3DC"/>
<path d="M556.167 173.152C588.884 228.6 621.883 284.358 654.699 339.75L654.755 341.198C649.734 341.522 644.74 341.494 639.733 340.931C629.394 339.75 619.464 340.523 609.055 340.355C591.557 340.172 574.228 340.833 556.758 339.497C539.218 338.259 521.677 339.581 504.165 338.484C494.39 336.53 484.74 337.739 474.908 336.895C483.685 320.133 491.801 303.075 499.819 285.933C512.464 261.309 523.689 236.011 536.404 211.416C542.903 198.872 547.404 184.303 556.167 173.152Z" fill="#3495C9"/>
<path d="M826.444 209.377C831.395 215.972 836.262 222.638 840.932 229.458C856.25 252.464 872.496 274.838 887.814 297.844C894.776 307.955 901.879 317.981 908.842 328.092C900.459 330.173 891.935 330.862 883.341 331.566C844.068 335.278 804.839 339.159 765.566 342.858C763.203 339.567 760.84 336.277 758.421 333.028C733.946 300.755 709.767 268.256 685.25 236.011C683.337 233.466 681.523 230.836 679.708 228.206C681.635 227.644 683.576 227.067 685.517 226.561C692.353 226.153 699.119 225.253 705.913 224.409C737.702 220.655 769.463 216.731 801.238 213.005C809.691 212.119 818.103 211.064 826.444 209.377Z" fill="#3494C9"/>
<path d="M1686.51 220.795C1691.04 220.472 1695.33 221.048 1699.78 221.752C1692.88 231.412 1684.83 240.328 1677.24 249.455C1659.84 270.506 1642.21 291.375 1624.76 312.37C1620.17 317.77 1615.64 323.184 1611.38 328.852C1609.78 328.795 1608.17 328.683 1606.57 328.486C1607.32 327.642 1608.06 326.813 1608.82 325.969C1607.12 320.963 1605.25 316.069 1603.15 311.217C1596.77 296.325 1591.18 281.137 1584.99 266.161C1579.9 253.35 1574.22 240.834 1570.28 227.587C1578.2 228.136 1586.05 227.798 1593.94 226.997C1609.79 225.928 1625.64 224.916 1641.5 223.805C1656.53 223.411 1671.54 222.117 1686.51 220.795Z" fill="#3597CB"/>
<path d="M1702.12 222.202L1702.48 222.3C1707.28 227.616 1710.83 234.281 1714.93 240.173C1730.81 263.939 1746.31 287.972 1762.31 311.653C1760.9 312.131 1759.47 312.581 1758.04 313.017C1715.8 318.009 1673.4 322.158 1631.13 326.939C1624.57 327.642 1617.98 328.556 1611.38 328.852C1615.64 323.184 1620.17 317.77 1624.76 312.37C1642.21 291.375 1659.84 270.506 1677.24 249.455C1684.83 240.328 1692.88 231.413 1699.78 221.752C1700.57 221.878 1701.34 222.033 1702.12 222.202Z" fill="#38A0D8"/>
<path d="M680.201 225.928C681.973 226.111 683.745 226.322 685.518 226.561C683.577 227.067 681.635 227.644 679.708 228.206C681.523 230.836 683.337 233.466 685.25 236.011C709.767 268.256 733.947 300.755 758.421 333.028C760.841 336.277 763.204 339.567 765.567 342.858C754.005 343.997 742.963 341.634 731.429 341.691C715.956 341.705 700.484 341.747 685.011 341.733C674.954 341.719 664.799 340.692 654.755 341.198L654.699 339.75C659.116 323.719 662.182 307.434 665.572 291.15C669.243 274.964 672.141 258.609 675.897 242.437C677.233 236.883 677.627 231.694 677.289 225.998L678.077 225.984C678.78 225.956 679.483 225.942 680.201 225.928Z" fill="#38A0D7"/>
<path d="M455.019 226.209C461.503 263.123 468.058 300.066 474.908 336.895C484.74 337.739 494.389 336.53 504.165 338.484C494.811 339.117 485.457 339.089 476.104 339.75L474.739 339.722C468.452 332.62 460.561 328.753 452.909 323.437C438.491 313.467 424.017 303.595 409.544 293.723C401.456 288.211 393.579 282.502 384.985 277.777L383.62 277.003C399.81 266.062 415.297 253.969 431.191 242.606C439.166 237.009 446.34 230.752 455.019 226.209Z" fill="#3597CC"/>
<path d="M1570.28 227.587C1574.22 240.834 1579.9 253.35 1584.99 266.161C1591.18 281.138 1596.77 296.325 1603.15 311.217C1605.25 316.069 1607.12 320.963 1608.82 325.969C1608.06 326.813 1607.32 327.642 1606.57 328.486C1565.67 317.081 1524.04 307.997 1482.94 297.309C1482.44 297.183 1481.93 297.056 1481.43 296.93L1481.1 295.692C1496.04 285.37 1510.16 273.797 1524.71 262.913C1539.77 250.988 1555.23 239.512 1570.28 227.587Z" fill="#379BD1"/>
<path d="M173.939 235.814L174.375 236.236C177.146 239.147 179.917 242.016 183.181 244.378C210.722 264.6 238.038 285.173 265.579 305.395C270.052 308.883 274.075 312.384 279.321 314.747L280.531 315.084C276.156 316.308 271.754 317.25 267.267 317.939C210.398 326.798 153.6 336.769 96.7314 345.544C99.8119 339.891 103.483 334.673 107.351 329.555C126.495 302.766 145.245 275.681 164.712 249.117C167.314 245.545 169.635 241.791 171.872 237.994C156.54 237.319 141.264 238.556 125.932 237.417C136.538 235.027 146.806 236.264 157.538 236.095C163.01 236.109 168.482 235.659 173.939 235.814Z" fill="#389DD5"/>
<path d="M384.984 277.777C393.579 282.502 401.456 288.211 409.543 293.723C424.017 303.595 438.491 313.467 452.909 323.437C460.561 328.753 468.452 332.62 474.739 339.722C471.715 349.256 469.788 358.988 467.298 368.663C460.8 394.397 454.583 420.202 448.197 445.978C447.479 446.147 446.762 446.316 446.059 446.484C438.322 422.916 429.18 399.811 420.965 376.411C409.023 343.884 397.278 311.302 385.406 278.747L384.984 277.777Z" fill="#379ED6"/>
<path d="M385.407 278.747C397.278 311.302 409.023 343.884 420.965 376.411C429.18 399.811 438.323 422.916 446.059 446.484L447.015 448.805C428.364 445.809 410.599 440.198 392.214 436.177C383.508 434.152 375.026 431.381 366.249 429.638C349.004 426.178 331.829 419.766 314.289 417.952L312.995 417.811C319.958 405.534 325.894 392.667 332.434 380.152C346.894 350.733 362.592 321.961 376.897 292.472C379.218 287.55 382.115 283.064 385.407 278.747Z" fill="#3390C4"/>
<path d="M0 290.489C6.24527 298.927 13.3767 306.717 19.622 315.141C22.5758 319.163 22.7446 323.733 23.3073 328.528C24.8123 346.542 26.88 364.486 28.3007 382.5C18.8484 384.328 9.50857 386.648 0 388.223V290.489Z" fill="#379FD6"/>
<path d="M1481.42 296.93C1481.93 297.056 1482.44 297.183 1482.94 297.309C1486.52 307.659 1495.41 316.209 1501.57 325.463C1509.19 336.966 1517.94 347.625 1525.68 359.03C1534.33 371.813 1544.21 383.681 1552.91 396.436C1555.68 400.57 1558.8 404.437 1561.78 408.417C1589.96 458.578 1618 509.484 1645.97 559.814C1626.22 558.858 1606.62 555.919 1586.86 554.963C1569.18 553.064 1551.46 551.728 1533.78 549.928C1525.14 534.108 1515.72 518.709 1507.04 502.917C1501.48 492.623 1495.17 482.78 1489.65 472.472C1479.67 454.402 1468.44 436.936 1458.99 418.641C1456.16 413.17 1452.56 408.22 1449.35 402.975C1446.09 396.605 1443.74 389.714 1441.08 383.063C1435.25 367.566 1428.37 352.519 1422.68 336.966C1417.35 324.773 1412.89 312.23 1407.31 300.164L1406.48 298.406L1407.51 298.505C1415.17 298.856 1422.83 297.858 1430.51 298.083C1447.6 298.898 1464.28 295.411 1481.42 296.93Z" fill="#3699CE"/>
<path d="M1482.94 297.309C1524.04 307.997 1565.67 317.081 1606.57 328.486C1608.17 328.683 1609.78 328.795 1611.38 328.852C1617.98 328.556 1624.57 327.642 1631.13 326.939C1673.4 322.158 1715.8 318.009 1758.04 313.017C1761.31 313.959 1764.21 313.72 1765.58 317.334C1770.77 329.119 1775.56 341.086 1780.97 352.8C1786.67 365.119 1790.66 378.998 1798.25 390.248C1796.64 391.584 1794.94 392.78 1793.2 393.933C1784.97 396.619 1777.12 400.134 1769.03 403.228C1740.67 414.084 1712.47 425.363 1684.23 436.528C1679.57 438.286 1674.62 440.986 1669.64 441.436C1663.38 441.113 1657.16 437.948 1651.16 436.219C1629.44 429.694 1608.05 422.016 1586.44 415.153C1578.1 412.72 1570.48 409.444 1561.78 408.417C1558.8 404.437 1555.68 400.57 1552.91 396.436C1544.21 383.681 1534.33 371.813 1525.68 359.03C1517.94 347.625 1509.19 336.966 1501.57 325.463C1495.41 316.209 1486.52 307.659 1482.94 297.309Z" fill="#3495CA"/>
<path d="M1407.31 300.164C1412.89 312.23 1417.35 324.773 1422.68 336.966C1428.37 352.519 1435.24 367.566 1441.08 383.062C1443.74 389.714 1446.09 396.605 1449.35 402.975C1447.17 403.552 1444.99 404.156 1442.81 404.677C1413.86 410.625 1384.87 416.362 1355.88 422.086C1373.48 381.656 1389.59 340.552 1407.31 300.164Z" fill="#389FD7"/>
<path d="M1866.41 303.497C1872.37 308.236 1877.55 314.156 1883.06 319.57C1895.34 331.917 1907.78 344.123 1920 356.513V408.15C1898.86 405.534 1877.77 402.469 1856.63 399.783C1844.89 398.588 1833.26 396.605 1821.54 395.17C1813.61 394.214 1806.35 392.302 1798.26 393.145L1796.51 393.356L1793.2 393.933C1794.94 392.78 1796.64 391.584 1798.24 390.248C1804.39 383.639 1809.31 375.919 1815 368.902C1827.04 353.714 1838.56 338.133 1850.47 322.861C1855.72 316.083 1860.12 309.234 1866.41 303.497Z" fill="#3493C7"/>
<path d="M911.064 327.572C910.474 332.325 910.755 336.066 912.373 340.594C917.31 355.303 920.896 370.392 925.721 385.144C928.154 392.077 929.181 397.955 925.215 404.606C921.473 412.031 917.056 419.105 913.329 426.558C905.818 441.492 898.644 456.553 890.486 471.164C882.82 484.987 876.968 500.091 868.177 513.225C862.523 505.167 858.922 496.181 854.069 487.688C847.993 476.803 841.987 465.848 836.459 454.683C830.874 443.953 824.826 433.463 819.143 422.789C813.616 412.256 809.086 401.991 802.377 392.175C790.407 436.289 778.577 480.431 766.678 524.559C765.229 529.706 764.638 536.175 761.065 540.267C753.624 531.098 747.056 521.255 739.896 511.861C718.769 482.794 697.431 453.98 676.304 424.941C669.932 422.634 662.224 423.028 655.458 422.395C620.448 419.583 585.368 417.53 550.386 414.352C545.533 413.564 538.542 414.028 535.363 409.739C515.558 386.466 496.119 362.841 476.104 339.75C485.457 339.089 494.811 339.117 504.165 338.484C521.677 339.581 539.217 338.259 556.758 339.497C574.227 340.833 591.557 340.172 609.055 340.355C619.463 340.523 629.394 339.75 639.732 340.931C644.74 341.494 649.733 341.522 654.755 341.198C664.798 340.692 674.954 341.719 685.011 341.733C700.483 341.747 715.956 341.705 731.428 341.691C742.962 341.634 754.004 343.997 765.566 342.858C804.838 339.159 844.068 335.278 883.34 331.566C891.935 330.862 900.459 330.173 908.842 328.092C909.587 327.923 910.333 327.755 911.064 327.572Z" fill="#369BD1"/>
<path d="M474.739 339.722L476.103 339.75C496.119 362.841 515.558 386.466 535.363 409.739C538.542 414.028 545.533 413.564 550.386 414.352C546.644 414.633 542.973 415.153 539.26 415.659C538.022 429.005 538.584 442.308 539.892 455.625C540.75 473.231 539.4 490.964 540.582 508.57C542.298 526.978 541.271 545.794 541.468 564.286C536.446 559.237 532.114 553.753 527.866 548.058C521.185 539.761 514.686 531.309 507.724 523.266C498.004 511.805 489.213 499.584 479.451 488.18C468.62 475.102 458.676 461.152 447.015 448.805L446.059 446.484C446.762 446.316 447.479 446.147 448.197 445.978C454.583 420.202 460.8 394.397 467.298 368.663C469.788 358.988 471.715 349.256 474.739 339.722Z" fill="#3595C9"/>
<path d="M28.3007 382.5L29.5947 382.584C31.8031 386.367 33.9411 390.136 36.7683 393.525C52.5081 413.48 67.3196 434.137 83.0593 454.078C103.131 480.867 123.541 507.417 143.866 533.995C147.931 539.184 148.41 544.964 149.296 551.236C153.431 579.417 157.37 607.655 161.378 635.85C162.63 644.47 164.768 652.134 163.277 660.923C155.696 683.297 147.65 705.516 139.956 727.861C134.583 742.402 130.138 757.181 124.244 771.497C123.921 772.284 123.597 773.072 123.26 773.859C92.3569 761.273 61.665 748.209 30.8044 735.525C25.7407 733.486 20.9582 730.856 15.8523 728.944C10.5635 727.861 5.37319 727.847 0 727.819V660.839C8.56615 661.05 17.1182 661.191 25.6844 660.727C23.462 651.698 19.7204 643.345 16.4571 634.683C10.9433 620.62 5.6967 606.473 0 592.481V388.223C9.50857 386.648 18.8484 384.328 28.3007 382.5Z" fill="#3493C7"/>
<path d="M29.5947 382.584C41.7618 383.766 53.9569 383.85 66.124 384.947C95.6624 386.142 125.173 388.659 154.711 389.911C171.337 391.402 187.372 390.952 203.942 394.031C199.863 407.109 194.152 419.738 189.37 432.605C180.818 455.316 171.647 477.773 163.052 500.47C158.214 513.506 152.025 525.122 148.888 538.298C179.214 527.597 209.259 516.023 239.543 505.181C251.794 500.372 264.383 496.448 276.466 491.231C279.209 495.436 280.756 499.669 281.727 504.577C284.962 519.652 289.547 534.333 293.148 549.309C300.448 579.277 308.649 609.005 315.907 638.972C317.932 647.114 319.831 655.186 323.024 662.962L323.854 665.044C326.963 671.133 331.056 676.237 335.233 681.595C347.626 697.795 359.947 714.066 372.114 730.434C375.659 735.23 379.232 740.208 383.381 744.497L384.211 745.256L383.015 745.341C350.636 748.997 317.989 752.808 285.553 756.436C272.471 757.884 259.32 759.769 246.182 760.598C257.913 744.877 270.825 730.041 282.936 714.6C288.858 706.95 295.16 699.581 301.109 691.945C308.086 683.044 315.583 674.831 321.969 665.494C306.581 663.891 291.137 663.891 275.706 662.78C255.072 661.725 234.423 660.741 213.802 659.63C198.02 659.32 182.252 657.647 166.47 657.408C165.359 658.533 164.29 659.714 163.277 660.923C164.768 652.134 162.63 644.47 161.378 635.85C157.37 607.655 153.431 579.417 149.296 551.236C148.41 544.964 147.931 539.184 143.866 533.995C123.541 507.417 103.131 480.867 83.0593 454.078C67.3196 434.137 52.5081 413.48 36.7684 393.525C33.9411 390.136 31.8031 386.367 29.5947 382.584Z" fill="#3390C2"/>
<path d="M1196.18 390.938L1197.33 393.244C1196.2 393.145 1195.07 393.075 1193.93 393.019C1187.32 400.233 1182.5 409.064 1176.57 416.869C1157.4 443.714 1138.62 470.827 1119.73 497.869C1116.48 502.819 1111.84 507.628 1109.9 513.239C1110.73 516.544 1112.81 519.722 1114.63 522.577C1122.19 533.827 1129.2 545.456 1136.4 556.931C1144.25 570.108 1152.87 582.778 1160.71 595.969C1166.07 605.067 1172.35 613.448 1177.21 622.842C1143.5 623.419 1109.76 622.898 1076.04 623.095C1066.63 623.278 1057 622.477 1047.67 623.559C1042 624.516 1036.52 626.836 1031.01 628.467C998.949 638.409 967.033 648.858 934.949 658.716L934.119 658.912L934.541 657.816C942.052 643.191 947.693 627.806 954.923 613.069C964.164 592.298 972.857 571.205 982.576 550.659C993.52 538.987 1003.03 526.177 1013.58 514.153C1021.05 504.295 1029.68 495.478 1037.12 485.592C1056.87 461.742 1076.76 437.977 1096.47 414.098C1099.65 410.47 1102.69 406.758 1105.55 402.863C1104.05 402.216 1102.54 401.569 1101.03 400.95C1117.47 400.641 1133.95 397.575 1150.34 396.028C1165.56 394.552 1180.89 391.148 1196.18 390.938Z" fill="#3493C6"/>
<path d="M1196.18 390.938C1205.59 391.43 1214.5 394.594 1223.96 396.127C1240.33 398.742 1256.38 402.764 1272.73 405.506C1300.35 411.553 1328.25 416.095 1355.89 422.086C1362.81 450.591 1368.84 479.348 1376.28 507.713C1382.54 500.344 1387.59 492.23 1393.19 484.369C1407.55 464.456 1420.98 443.911 1435.44 424.069C1439.76 418.008 1444.04 411.947 1447.62 405.408C1446.02 405.141 1444.42 404.902 1442.81 404.677C1444.99 404.156 1447.17 403.552 1449.35 402.975C1452.56 408.22 1456.16 413.17 1458.99 418.641C1468.44 436.936 1479.67 454.402 1489.65 472.472C1495.17 482.78 1501.48 492.623 1507.04 502.917C1515.72 518.709 1525.14 534.108 1533.78 549.928C1515.35 572.962 1497.83 596.911 1479.85 620.325C1471.4 631.097 1463.25 642.136 1454.91 653.006C1450.59 659.123 1445.94 664.734 1440.91 670.275C1433.36 649.181 1424.32 628.58 1416.14 607.697C1411.52 595.238 1405.95 583.172 1401.18 570.769C1393.08 549.984 1384.2 529.552 1376.25 508.725C1374.68 511.27 1373.13 513.844 1371.72 516.487C1364.13 531.197 1355.39 545.344 1347.97 560.152C1342.99 570.023 1336.93 579.291 1332 589.205C1325.74 600.581 1319.91 612.253 1312.96 623.222C1308.61 614.264 1306.67 604.716 1303.45 595.364C1300.03 585.169 1296.63 574.988 1293.46 564.708C1291.21 557.142 1287.02 550.828 1283.04 544.106C1258.35 501.244 1233.98 458.156 1209.28 415.294C1205.25 407.939 1200.72 400.936 1197.34 393.244L1196.18 390.938Z" fill="#3596CA"/>
<path d="M1193.93 393.019C1195.07 393.075 1196.19 393.145 1197.33 393.244C1200.72 400.936 1205.25 407.939 1209.28 415.294C1233.98 458.156 1258.35 501.244 1283.04 544.106C1287.02 550.828 1291.21 557.142 1293.46 564.708C1296.63 574.988 1300.03 585.169 1303.45 595.364C1306.67 604.716 1308.61 614.264 1312.96 623.222C1313.29 624.009 1313.6 624.797 1313.88 625.584C1316.78 636.3 1320.97 646.495 1324.73 656.916C1331.9 676.013 1339.08 695.109 1346.22 714.22C1349.13 721.758 1350.75 728.93 1356.31 735.103C1378.14 759.234 1399.62 783.703 1421.15 808.102C1436.16 824.555 1450.77 841.359 1465.63 857.939C1472.56 865.491 1477.95 873.366 1486.08 879.708C1486.54 872.831 1485.77 866.067 1485.29 859.219C1483.22 828.056 1482.09 796.697 1479.31 765.577C1479.48 760.458 1479.9 755.325 1480.21 750.206C1502.16 750.853 1523.9 753.511 1545.83 754.116C1572.82 756.366 1599.89 757.406 1626.87 759.783C1631.51 760.359 1636.12 761.133 1640.76 761.709C1634.19 777.445 1629.13 793.884 1623.21 809.873C1618.85 821.953 1614.28 833.948 1610.31 846.141C1609.23 849.178 1608.23 852.525 1606.41 855.197C1604.04 856.87 1600.76 857.475 1597.99 858.15C1589.84 859.88 1581.62 861.23 1573.46 862.903C1545.94 868.894 1518.26 874.069 1490.74 880.003C1488.53 880.65 1486.38 881.17 1484.65 882.759C1463.36 908.255 1442.56 932.808 1421.32 958.388C1418.72 961.552 1415.82 964.42 1412.94 967.317L1411.81 968.583C1380.63 940.95 1349.56 913.162 1318.34 885.572C1313.45 881.1 1308.75 876.614 1302.96 873.309L1302.6 872.044C1299.03 861.286 1293.33 851.161 1288.52 840.923C1282.74 829.645 1277.54 818.128 1272.11 806.695C1261.95 786.923 1253.84 767.137 1243.02 747.647C1245.9 739.322 1250.7 732.22 1255.13 724.683C1269.93 698.766 1284.81 672.877 1299.9 647.128C1304.02 639.872 1308.51 632.883 1312.37 625.472C1302.38 623.391 1292.91 624.656 1282.81 624.417C1267.8 624.248 1252.81 624.487 1237.8 624.277C1218.01 623.616 1198.46 622.266 1178.63 623.222C1182.17 632.77 1187.54 641.222 1192.3 650.166C1202.07 669.727 1212.62 688.922 1222.81 708.272C1228.5 720.605 1236.35 731.981 1241.33 744.539L1239.19 746.058C1228.83 743.667 1218.87 743.414 1208.25 742.345C1187.33 740.278 1166.4 738.38 1145.49 736.256C1137.06 735.553 1128.62 734.4 1120.18 734.189C1110.83 719.494 1101.48 704.798 1091.81 690.3C1084.89 678.6 1076.85 667.645 1069.62 656.142C1062.71 645.652 1056.48 634.486 1048.6 624.712L1047.67 623.559C1057 622.477 1066.63 623.278 1076.04 623.095C1109.76 622.898 1143.5 623.419 1177.21 622.842C1172.35 613.448 1166.07 605.067 1160.71 595.969C1152.87 582.778 1144.25 570.108 1136.4 556.931C1129.2 545.456 1122.19 533.827 1114.63 522.577C1112.81 519.722 1110.73 516.544 1109.9 513.239C1111.84 507.628 1116.48 502.819 1119.73 497.869C1138.62 470.827 1157.4 443.714 1176.57 416.869C1182.49 409.064 1187.32 400.233 1193.93 393.019Z" fill="#318DBE"/>
<path d="M1821.54 395.17C1833.26 396.605 1844.89 398.588 1856.63 399.783C1877.77 402.469 1898.86 405.534 1920 408.15V534.53C1915.91 535.528 1911.77 536.161 1907.61 536.822C1904.26 533.138 1901.07 529.341 1898.13 525.333C1865.07 481.163 1831.31 437.302 1798.26 393.145C1806.35 392.302 1813.61 394.214 1821.54 395.17Z" fill="#328FC1"/>
<path d="M1793.2 393.933L1796.52 393.356C1781.75 416.278 1766.53 438.877 1751.8 461.798C1744.94 472.331 1737.71 482.597 1731.14 493.312C1724.82 499.177 1717.63 504.211 1710.9 509.597C1699.94 518.344 1688.78 526.823 1677.88 535.655C1667.81 543.783 1657.23 551.32 1647.44 559.772L1645.97 559.814C1618 509.484 1589.96 458.578 1561.78 408.417C1570.48 409.444 1578.1 412.72 1586.44 415.153C1608.05 422.016 1629.44 429.694 1651.16 436.219C1657.16 437.948 1663.38 441.112 1669.64 441.436C1674.62 440.986 1679.57 438.286 1684.23 436.528C1712.47 425.362 1740.67 414.084 1769.03 403.228C1777.12 400.134 1784.97 396.619 1793.2 393.933Z" fill="#328EC0"/>
<path d="M1796.52 393.356L1798.26 393.145C1831.31 437.302 1865.07 481.163 1898.13 525.333C1901.07 529.341 1904.26 533.137 1907.61 536.822C1911.77 536.161 1915.91 535.528 1920 534.53V567.591C1915.88 557.831 1912.12 547.945 1908.03 538.172C1905.1 539.761 1902.31 541.448 1899.97 543.867C1887.79 556.552 1875.05 568.631 1862.65 581.091C1855.75 587.855 1849.28 594.858 1842.01 601.228C1836.11 606.417 1830.81 612.211 1824.82 617.302C1798.58 584.269 1773.38 550.35 1747.45 517.064C1741.94 509.934 1736.65 502.65 1730.77 495.802L1731.14 493.312C1737.71 482.597 1744.94 472.331 1751.8 461.798C1766.53 438.877 1781.75 416.278 1796.52 393.356Z" fill="#3598CD"/>
<path d="M929.955 396.914C937.776 396.141 945.61 396.352 953.417 397.097C966.498 398.391 979.889 397.786 993.055 397.913C1004.83 397.688 1016.43 399.684 1028.22 399.347C1042.02 399.6 1055.63 398.728 1069.26 400.177C1079.88 401.259 1090.39 400.458 1101.02 400.95C1102.54 401.569 1104.05 402.216 1105.55 402.863C1102.68 406.758 1099.65 410.47 1096.47 414.098C1076.76 437.977 1056.87 461.742 1037.12 485.592C1029.68 495.478 1021.05 504.295 1013.58 514.153C1003.03 526.177 993.519 538.988 982.576 550.659C974.699 530.733 968.819 510.286 961.28 490.247C954.627 470.658 948.283 450.984 941.166 431.55C937.733 419.92 932.67 408.727 929.955 396.914Z" fill="#3290C3"/>
<path d="M1442.81 404.677C1444.42 404.902 1446.02 405.141 1447.62 405.408C1444.04 411.947 1439.76 418.008 1435.44 424.069C1420.98 443.911 1407.55 464.456 1393.19 484.369C1387.59 492.23 1382.54 500.344 1376.28 507.713C1368.84 479.348 1362.81 450.591 1355.88 422.086C1384.87 416.362 1413.86 410.625 1442.81 404.677Z" fill="#328FC2"/>
<path d="M550.386 414.352C585.368 417.53 620.448 419.583 655.458 422.395C662.224 423.028 669.932 422.634 676.304 424.941C672.014 428.583 668.258 432.506 665.164 437.231C655.895 450.816 645.415 463.43 635.851 476.775C630.323 484.341 624.682 491.822 618.915 499.219C616.735 502.27 614.4 504.745 614.541 508.711C618.718 514.603 624.035 519.202 629.535 523.8C637.468 530.381 643.953 538.369 651.872 544.95C660.142 551.7 666.978 559.87 675.137 566.719C680.974 571.669 686.305 577.111 691.664 582.567C697.783 588.628 704.591 593.902 710.653 600.033C708.571 600.609 706.462 601.13 704.338 601.538C682.367 604.027 660.353 606.164 638.354 608.358C623.374 609.764 608.464 611.719 593.456 612.773C595.102 594.844 600.011 577.223 602.866 559.448C605.468 542.869 610.11 526.345 611.488 509.611C610.743 505.645 608.563 502.509 606.031 499.458C594.637 485.916 584.229 471.67 573.06 457.917C561.737 443.911 551.145 429.187 539.26 415.659C542.973 415.153 546.644 414.633 550.386 414.352Z" fill="#3391C4"/>
<path d="M539.26 415.659C551.145 429.188 561.737 443.911 573.06 457.917C584.228 471.67 594.637 485.916 606.031 499.458C608.563 502.509 610.743 505.645 611.488 509.611C606.706 512.93 602.134 516.445 597.704 520.228C579.488 535.528 560.795 550.266 542.72 565.734L541.468 564.286C541.271 545.794 542.298 526.978 540.582 508.57C539.4 490.964 540.751 473.231 539.893 455.625C538.584 442.308 538.022 429.005 539.26 415.659Z" fill="#369ACF"/>
<path d="M312.995 417.811L314.289 417.952C329.312 445.303 343.954 472.88 358.991 500.231C362.268 506.377 364.758 512.62 369.498 517.866C389.12 502.017 407.335 484.734 426.338 468.338C433.315 461.714 440.798 456.145 447.015 448.805C458.676 461.152 468.62 475.102 479.451 488.18C489.213 499.584 498.004 511.805 507.724 523.266C514.686 531.309 521.185 539.761 527.866 548.058C532.114 553.753 536.446 559.237 541.468 564.286L542.72 565.734C525.151 579.811 508.315 594.731 490.802 608.878C482.025 615.67 474.275 623.841 465.048 629.972C449.181 611.367 433.245 592.805 417.027 574.523C401.357 555.891 385.294 537.553 369.399 519.117C365.644 529.045 362.62 539.156 359.511 549.309C351.606 574.158 343.546 598.978 335.754 623.855C331.421 636.877 327.778 650.081 323.024 662.963C319.831 655.186 317.932 647.114 315.907 638.972C308.649 609.005 300.448 579.277 293.148 549.309C289.547 534.333 284.962 519.652 281.726 504.577C280.756 499.669 279.209 495.436 276.466 491.231C282.331 481.781 286.537 471.586 291.629 461.714C298.338 446.906 305.315 432.141 312.995 417.811Z" fill="#3493C7"/>
<path d="M366.249 429.637C375.026 431.381 383.508 434.152 392.214 436.177C410.599 440.198 428.364 445.809 447.015 448.805C440.798 456.145 433.315 461.714 426.338 468.338C407.335 484.734 389.12 502.017 369.498 517.866C364.758 512.62 362.268 506.377 358.991 500.231C343.954 472.88 329.311 445.303 314.289 417.952C331.829 419.766 349.004 426.178 366.249 429.637Z" fill="#318DBE"/>
<path d="M676.304 424.941C697.431 453.98 718.769 482.794 739.896 511.861C747.056 521.255 753.624 531.098 761.065 540.267C760.123 540.928 759.18 541.589 758.238 542.236C754.932 540.9 751.599 539.719 748.11 538.931C710.653 530.452 673.252 521.719 635.794 513.225C628.747 511.509 621.686 509.934 614.54 508.711C614.4 504.745 616.735 502.27 618.915 499.219C624.682 491.822 630.322 484.341 635.85 476.775C645.415 463.43 655.894 450.816 665.164 437.231C668.258 432.506 672.014 428.583 676.304 424.941Z" fill="#328DBF"/>
<path d="M1731.14 493.312L1730.77 495.802C1729.56 505.533 1730.11 514.758 1730.05 524.531C1730.02 547.031 1730.07 569.531 1730.04 592.031C1729.93 602.184 1730.6 612.197 1729.45 622.322C1701.72 601.973 1674.42 580.964 1646.67 560.672L1647.44 559.772C1657.23 551.32 1667.81 543.783 1677.88 535.655C1688.78 526.823 1699.94 518.344 1710.89 509.597C1717.63 504.211 1724.82 499.177 1731.14 493.312Z" fill="#3496CA"/>
<path d="M1730.77 495.802C1736.65 502.65 1741.94 509.934 1747.45 517.064C1773.38 550.35 1798.58 584.269 1824.81 617.302C1830.81 612.211 1836.11 606.417 1842 601.228C1849.28 594.858 1855.75 587.855 1862.65 581.091C1875.04 568.631 1887.79 556.552 1899.97 543.867C1902.3 541.448 1905.1 539.761 1908.03 538.172C1912.12 547.945 1915.88 557.831 1920 567.591V630.422C1892.85 626.527 1865.58 623.63 1838.44 619.664C1833.55 618.989 1828.71 619.144 1823.79 619.13C1816 618.877 1808.3 618.258 1800.51 619.214C1790.37 620.494 1780.18 619.805 1770.03 620.831C1756.34 622.209 1743.53 620.916 1729.86 623.939C1726.59 627.342 1724.09 631.589 1721.57 635.569C1706.28 659.208 1690.96 682.763 1675.81 706.5C1663.94 723.98 1653.07 742.148 1641.21 759.642L1640.3 759.572C1632.13 743.245 1623.9 726.947 1615.68 710.634C1609.56 699.708 1603.92 688.598 1598.41 677.348C1595.06 670.655 1592.15 664.144 1587.76 658.027L1588.96 657.788C1592.88 656.972 1596.82 656.283 1600.72 655.355C1634.91 646.791 1668.68 638.142 1702.85 629.423C1711.77 627.188 1720.74 625.345 1729.45 622.322C1730.6 612.197 1729.93 602.184 1730.04 592.031C1730.07 569.531 1730.02 547.031 1730.05 524.531C1730.11 514.758 1729.56 505.533 1730.77 495.802Z" fill="#3290C2"/>
<path d="M614.541 508.711C621.687 509.934 628.748 511.509 635.795 513.225C673.252 521.719 710.654 530.452 748.111 538.931C751.599 539.719 754.933 540.9 758.239 542.236C758.942 542.503 759.645 542.77 760.349 543.037C750.826 556.383 739.081 568.125 728.574 580.697C722.694 586.997 717.715 595.153 710.654 600.033C704.591 593.902 697.783 588.628 691.665 582.567C686.305 577.111 680.974 571.669 675.137 566.719C666.979 559.87 660.143 551.7 651.872 544.95C643.953 538.369 637.468 530.381 629.535 523.8C624.036 519.202 618.719 514.603 614.541 508.711Z" fill="#3598CE"/>
<path d="M1376.25 508.725C1384.2 529.552 1393.08 549.984 1401.18 570.769C1405.95 583.172 1411.52 595.237 1416.14 607.697C1424.32 628.58 1433.36 649.181 1440.91 670.275L1441.17 671.231C1408.94 659.306 1376.46 648.028 1344.18 636.187C1334.06 632.63 1324.13 628.791 1313.89 625.584C1313.6 624.797 1313.29 624.009 1312.96 623.222C1319.91 612.253 1325.74 600.581 1332 589.205C1336.93 579.291 1342.99 570.023 1347.97 560.152C1355.39 545.344 1364.13 531.197 1371.72 516.487C1373.13 513.844 1374.68 511.27 1376.25 508.725Z" fill="#3390C3"/>
<path d="M611.489 509.611C610.11 526.345 605.468 542.869 602.866 559.448C600.011 577.223 595.102 594.844 593.456 612.773C608.464 611.719 623.374 609.764 638.355 608.358C660.354 606.164 682.367 604.027 704.338 601.537C706.799 601.594 709.261 601.734 711.722 602.002C725.69 641.672 740.276 681.272 754.441 720.872C757.732 729.745 760.644 738.759 764.217 747.506C766.959 748.041 769.702 748.603 772.459 749.067C769.759 749.433 767.072 749.953 764.428 750.656L763.246 750.994C750.474 747.098 738.026 751.162 724.396 750.909C714.015 750.67 703.831 752.611 693.451 752.358C687.487 752.273 681.621 752.541 675.686 753.131C666.782 754.017 657.864 753.427 648.974 754.312C644.375 754.762 639.761 755.536 635.162 755.831L633.6 755.789C625.892 755.409 618.353 756.394 610.715 757.167C585.298 759.136 559.909 761.372 534.506 763.481C527.656 763.819 520.932 764.887 514.166 765.858L512.774 765.942C494.235 762.567 475.626 759.276 456.918 756.97C439.772 753.933 422.541 751.669 405.338 749.081C398.221 748.181 391.16 747.042 384.211 745.256L383.381 744.497C397.841 725.189 411.541 705.291 425.579 685.673C436.326 671.062 446.65 656.142 457.326 641.475C459.745 638.142 461.996 634.683 464.162 631.167C453.866 632.475 444.202 635.498 434.103 637.819C397.405 647.114 360.524 655.594 323.854 665.044L323.024 662.962C327.779 650.081 331.422 636.877 335.754 623.855C343.547 598.978 351.606 574.158 359.511 549.309C362.62 539.156 365.644 529.045 369.4 519.117C385.294 537.553 401.358 555.891 417.027 574.523C433.245 592.805 449.182 611.367 465.048 629.972C474.275 623.841 482.026 615.67 490.803 608.878C508.315 594.731 525.152 579.811 542.72 565.734C560.795 550.266 579.489 535.528 597.704 520.228C602.135 516.445 606.706 512.93 611.489 509.611Z" fill="#318BBC"/>
<path d="M868.304 515.869C872.974 524.124 876.462 532.87 880.513 541.42C898.602 580.177 916.128 619.214 934.54 657.816L934.118 658.913C924.765 660.558 916.522 658.35 907.253 658.139C888.334 657.914 869.359 658.645 850.468 657.844C849.92 656.381 849.357 654.919 848.809 653.456C851.186 645.525 851.453 636.919 852.761 628.763C858.219 591.173 862.495 553.388 868.304 515.869Z" fill="#318ABB"/>
<path d="M771.686 554.583C791.73 581.428 811.872 608.203 831.986 634.992C837.191 641.995 842.634 648.872 847.557 656.086L847.656 657.155C826.247 648.872 805.163 639.745 783.923 631.013C767.424 623.995 750.643 617.625 734.2 610.425C726.886 607.57 719.445 603.422 711.723 602.002C709.261 601.734 706.799 601.594 704.338 601.538C706.462 601.13 708.572 600.609 710.654 600.033C717.715 595.153 722.694 586.997 728.573 580.697C739.081 568.125 750.826 556.383 760.348 543.037C765.89 544.781 768.268 550.308 771.686 554.583Z" fill="#328EC0"/>
<path d="M1533.78 549.928C1551.46 551.728 1569.18 553.064 1586.86 554.963C1606.62 555.919 1626.22 558.858 1645.97 559.814L1647.44 559.772L1646.67 560.672C1642.11 566.564 1638.62 573.384 1634.83 579.797C1619.61 605.784 1604.26 631.828 1588.96 657.788L1587.76 658.027C1568.3 660.67 1548.56 661.739 1528.98 663.553C1499.85 666.295 1470.28 668.503 1441.17 671.231L1440.91 670.275C1445.94 664.734 1450.59 659.123 1454.91 653.006C1463.25 642.136 1471.39 631.097 1479.85 620.325C1497.82 596.911 1515.35 572.962 1533.78 549.928Z" fill="#3492C5"/>
<path d="M1646.67 560.672C1674.42 580.964 1701.73 601.973 1729.45 622.322C1720.74 625.345 1711.77 627.187 1702.85 629.423C1668.68 638.142 1634.91 646.791 1600.72 655.355C1596.82 656.283 1592.88 656.972 1588.96 657.787C1604.26 631.828 1619.61 605.784 1634.83 579.797C1638.63 573.384 1642.11 566.564 1646.67 560.672Z" fill="#3089B9"/>
<path d="M0 592.481C5.6967 606.473 10.9433 620.62 16.4571 634.683C19.7204 643.345 23.462 651.698 25.6844 660.727C17.1182 661.191 8.56615 661.05 0 660.839V592.481Z" fill="#3189BA"/>
<path d="M711.723 602.002C719.445 603.422 726.886 607.57 734.2 610.425C750.643 617.625 767.424 623.995 783.923 631.013C805.163 639.745 826.247 648.872 847.656 657.155C845.532 663.286 838.738 667.645 834.687 672.736C826.909 682.341 817.372 690.173 809.537 699.708C804.234 706.078 797.891 711.422 792.588 717.806C789.156 721.912 785.569 725.794 781.715 729.492C775.554 735.286 770.898 742.219 764.217 747.506C760.644 738.759 757.732 729.745 754.441 720.872C740.276 681.272 725.69 641.672 711.723 602.002Z" fill="#3495CA"/>
<path d="M1800.51 619.214C1808.3 618.258 1816 618.876 1823.79 619.13C1822.35 622.041 1820.92 624.937 1819.34 627.778C1799.69 662.034 1780.03 696.248 1760.38 730.505C1757.71 734.948 1755.25 739.491 1752.86 744.103L1751.72 744.638C1744.19 704.447 1737.58 664.073 1729.86 623.939C1743.53 620.916 1756.34 622.209 1770.03 620.831C1780.19 619.805 1790.37 620.494 1800.51 619.214Z" fill="#3496CA"/>
<path d="M1838.45 619.664C1865.58 623.63 1892.85 626.527 1920 630.422V851.161C1905.3 848.18 1890.36 846.886 1875.52 844.537C1856.62 841.669 1837.73 838.856 1818.78 836.241C1815.36 835.833 1811.9 835.777 1808.47 835.987C1806.62 836.184 1804.77 836.438 1802.92 836.733C1804.41 835.988 1805.88 835.214 1807.35 834.427C1805.67 831.305 1803.98 828.183 1802.1 825.173C1785.26 798.848 1768.61 772.453 1751.81 746.086L1752.86 744.103C1755.25 739.491 1757.71 734.948 1760.38 730.505C1780.03 696.248 1799.69 662.034 1819.34 627.778C1820.92 624.937 1822.35 622.041 1823.79 619.13C1828.71 619.144 1833.55 618.989 1838.45 619.664Z" fill="#3088B7"/>
<path d="M1047.67 623.559L1048.6 624.712C1042.37 658.406 1037.43 692.353 1031.62 726.131C1030.13 736.777 1027.42 747.436 1026.93 758.18C1022.03 758.067 1017.14 757.772 1012.23 757.603C1016.54 757.153 1020.83 756.506 1025.14 755.958C1016.67 745.959 1007.56 736.664 998.442 727.27C990.452 717.905 981.45 709.538 973.405 700.228C966.639 692.48 958.973 685.645 952.207 677.925C946.553 671.4 940.279 665.536 934.948 658.716C967.033 648.858 998.948 638.409 1031 628.467C1036.52 626.836 1042 624.516 1047.67 623.559Z" fill="#3087B7"/>
<path d="M1178.63 623.222C1198.46 622.266 1218.01 623.616 1237.8 624.277C1252.81 624.487 1267.8 624.248 1282.81 624.417C1292.91 624.656 1302.38 623.391 1312.37 625.472C1308.51 632.883 1304.02 639.872 1299.9 647.128C1284.81 672.877 1269.93 698.766 1255.13 724.683C1250.7 732.22 1245.9 739.322 1243.02 747.647C1241.75 747.098 1240.49 746.55 1239.19 746.058L1241.33 744.539C1236.35 731.981 1228.5 720.605 1222.81 708.272C1212.62 688.922 1202.07 669.727 1192.3 650.166C1187.54 641.222 1182.17 632.77 1178.63 623.222Z" fill="#3087B6"/>
<path d="M1729.86 623.939C1737.58 664.073 1744.19 704.447 1751.71 744.637C1745.96 747.056 1739.15 747.422 1732.98 748.35C1711.12 751.458 1689.15 753.694 1667.35 757.195C1658.74 758.264 1649.74 760.458 1641.21 759.642C1653.07 742.148 1663.94 723.98 1675.82 706.5C1690.96 682.762 1706.28 659.208 1721.57 635.569C1724.09 631.589 1726.59 627.342 1729.86 623.939Z" fill="#3089B9"/>
<path d="M1048.6 624.713C1056.48 634.486 1062.71 645.652 1069.62 656.142C1076.85 667.645 1084.89 678.6 1091.81 690.3C1101.48 704.798 1110.83 719.494 1120.18 734.189C1100.07 768.923 1079.05 803.152 1058.9 837.872C1056.66 841.683 1053.99 845.156 1051.5 848.798C1043.75 818.494 1035.21 788.344 1026.93 758.18C1027.42 747.436 1030.13 736.777 1031.62 726.131C1037.43 692.353 1042.37 658.406 1048.6 624.713Z" fill="#3492C5"/>
<path d="M1313.88 625.584C1324.12 628.791 1334.06 632.63 1344.18 636.187C1376.46 648.028 1408.94 659.306 1441.17 671.231C1418.06 686.503 1394.75 702.113 1371.54 717.413C1365.34 721.364 1359.09 724.852 1354.09 730.406C1388.01 735.75 1421.95 741.094 1455.88 746.423C1463.12 747.394 1470.33 748.35 1477.39 750.333C1477.96 755.423 1478.71 760.5 1479.31 765.577C1482.09 796.697 1483.22 828.056 1485.29 859.219C1485.77 866.067 1486.54 872.831 1486.08 879.708C1477.95 873.366 1472.56 865.491 1465.63 857.939C1450.77 841.359 1436.16 824.555 1421.15 808.102C1399.62 783.703 1378.14 759.234 1356.31 735.103C1350.75 728.93 1349.13 721.758 1346.22 714.22C1339.08 695.109 1331.9 676.013 1324.73 656.916C1320.97 646.495 1316.78 636.3 1313.88 625.584Z" fill="#2F86B5"/>
<path d="M464.162 631.167C461.996 634.683 459.745 638.142 457.326 641.475C446.65 656.142 436.326 671.062 425.579 685.673C411.542 705.291 397.841 725.189 383.382 744.497C379.232 740.208 375.659 735.23 372.115 730.434C359.948 714.066 347.626 697.795 335.234 681.595C331.056 676.237 326.963 671.133 323.854 665.044C360.524 655.594 397.405 647.114 434.103 637.819C444.203 635.498 453.866 632.475 464.162 631.167Z" fill="#3493C7"/>
<path d="M848.808 653.456C849.357 654.919 849.92 656.381 850.468 657.844C869.359 658.645 888.334 657.914 907.252 658.139C916.522 658.35 924.764 660.558 934.118 658.912L934.948 658.716C940.279 665.536 946.553 671.4 952.207 677.925C958.973 685.645 966.639 692.48 973.404 700.228C981.45 709.538 990.452 717.905 998.442 727.27C1007.56 736.664 1016.67 745.959 1025.14 755.958C1020.83 756.506 1016.54 757.153 1012.23 757.603C984.46 759.192 956.694 760.838 928.942 762.638C920.685 762.075 912.471 763.2 904.242 762.694C872.664 759.094 840.931 756.408 809.297 753.145C796.989 751.838 784.64 751.022 772.458 749.067C769.702 748.603 766.959 748.041 764.216 747.506C770.897 742.219 775.553 735.286 781.714 729.492C785.568 725.794 789.155 721.913 792.587 717.806C797.89 711.422 804.233 706.078 809.536 699.708C817.371 690.173 826.908 682.341 834.686 672.736C838.737 667.645 845.531 663.286 847.655 657.155L847.556 656.086C847.993 655.214 848.4 654.328 848.808 653.456Z" fill="#3290C3"/>
<path d="M166.47 657.408C182.252 657.647 198.02 659.32 213.802 659.63C234.423 660.741 255.071 661.725 275.706 662.78C291.136 663.891 306.581 663.891 321.969 665.494C315.583 674.831 308.086 683.044 301.109 691.945C295.159 699.581 288.858 706.95 282.936 714.6C270.825 730.041 257.913 744.877 246.182 760.598C259.319 759.769 272.471 757.884 285.552 756.436C317.988 752.808 350.635 748.997 383.015 745.341C384.197 750.052 385.631 754.692 386.743 759.417C392.763 785.447 399.5 811.322 405.915 837.253C409.15 849.403 411.499 861.75 414.875 873.872L415.029 874.659C395.323 874.997 375.588 874.491 355.868 874.716C345.501 874.955 335.275 873.309 324.923 873.323C309.253 873.436 293.64 873.169 277.985 873.717C277.591 870.159 277.141 866.63 276.142 863.17C267.604 835.467 259.291 807.68 250.767 779.963C248.854 774.014 247.771 767.447 244.888 761.892C242.82 760.936 239.866 761.653 237.658 761.822C225.842 763.72 213.9 764.311 202.015 765.802C185.811 767.208 169.762 769.781 153.558 771.202C145.962 771.834 138.366 773.395 130.757 773.536C128.408 773.592 126.34 772.383 124.244 771.497C130.138 757.181 134.583 742.402 139.956 727.861C147.65 705.516 155.696 683.297 163.277 660.923C164.29 659.714 165.359 658.533 166.47 657.408Z" fill="#3087B7"/>
<path d="M1587.76 658.027C1592.15 664.144 1595.06 670.655 1598.41 677.348C1603.93 688.598 1609.57 699.708 1615.68 710.634C1623.9 726.947 1632.13 743.245 1640.3 759.572C1635.8 759.291 1631.35 759.586 1626.87 759.783C1599.89 757.406 1572.83 756.366 1545.83 754.116C1523.9 753.511 1502.16 750.853 1480.22 750.206C1479.91 755.325 1479.48 760.458 1479.31 765.576C1478.71 760.5 1477.96 755.423 1477.39 750.333C1470.33 748.35 1463.13 747.394 1455.88 746.423C1421.95 741.094 1388.01 735.75 1354.09 730.406C1359.09 724.852 1365.34 721.364 1371.54 717.412C1394.75 702.112 1418.06 686.503 1441.17 671.231C1470.28 668.503 1499.85 666.295 1528.98 663.553C1548.56 661.739 1568.3 660.67 1587.76 658.027Z" fill="#3089B9"/>
<path d="M0 727.819C5.37319 727.847 10.5635 727.861 15.8523 728.944C15.0506 731.32 14.8958 732.839 15.5429 735.3C26.247 774.872 36.6277 814.823 47.0646 854.452C48.1899 858.755 49.484 862.973 50.9468 867.164C50.778 868.655 50.5811 870.145 50.3842 871.636C41.2554 867.572 32.8299 862.298 23.9121 857.812C15.8242 853.678 7.42681 850.078 0 844.777V727.819Z" fill="#308ABC"/>
<path d="M15.8525 728.944C20.9584 730.856 25.7409 733.486 30.8046 735.525C61.6653 748.209 92.3571 761.273 123.26 773.859C120.081 781.397 114.792 786.783 110.052 793.448C91.1615 819.436 72.4398 845.55 53.3101 871.369C52.5224 869.977 51.7347 868.57 50.947 867.164C49.4842 862.973 48.1901 858.755 47.0648 854.452C36.6279 814.823 26.2472 774.872 15.5431 735.3C14.896 732.839 15.0508 731.32 15.8525 728.944Z" fill="#2F85B3"/>
<path d="M1120.18 734.189C1128.62 734.4 1137.06 735.553 1145.49 736.256C1166.4 738.38 1187.33 740.278 1208.25 742.345C1218.87 743.414 1228.83 743.667 1239.19 746.058C1240.49 746.55 1241.75 747.098 1243.02 747.647C1253.84 767.138 1261.95 786.924 1272.11 806.695C1277.54 818.128 1282.74 829.645 1288.52 840.923C1293.33 851.161 1299.03 861.286 1302.6 872.044C1270.15 858.291 1238.15 843.511 1205.82 829.491C1198.23 826.27 1190.77 822.192 1182.86 819.858C1174.55 819.928 1167.51 822.642 1159.55 824.527C1142.45 828.45 1125.47 832.838 1108.33 836.522C1096.05 838.983 1084.1 842.709 1071.84 845.199C1064.57 846.774 1057.43 848.194 1050.78 851.723L1051.25 849.825L1051.5 848.799C1053.99 845.156 1056.66 841.683 1058.9 837.872C1079.05 803.152 1100.07 768.924 1120.18 734.189Z" fill="#2F85B4"/>
<path d="M1751.71 744.638L1752.85 744.103L1751.81 746.086C1739.25 767.222 1726.83 788.484 1714.1 809.508C1700.23 833.414 1685.38 856.758 1671.79 880.833C1667.7 873.675 1666.88 866.18 1664.84 858.347C1659.09 834.637 1653.62 810.858 1647.36 787.275C1645.09 778.683 1644.05 770.034 1640.76 761.709C1636.12 761.133 1631.51 760.359 1626.87 759.783C1631.35 759.586 1635.8 759.291 1640.3 759.572L1641.21 759.642C1649.74 760.458 1658.74 758.264 1667.35 757.195C1689.15 753.694 1711.12 751.458 1732.98 748.35C1739.15 747.422 1745.96 747.056 1751.71 744.638Z" fill="#318BBD"/>
<path d="M383.016 745.341L384.211 745.256C391.16 747.042 398.221 748.181 405.338 749.081C422.541 751.669 439.772 753.933 456.918 756.97C475.626 759.277 494.235 762.567 512.774 765.942C506.993 771.848 502.056 778.486 496.176 784.336C487.019 793.547 479.311 803.953 470.168 813.164C463.135 820.308 457.016 828.113 450.265 835.509C443.288 843.047 436.593 850.852 429.518 858.305C424.848 863.817 420.122 868.894 414.875 873.872C411.499 861.75 409.15 849.403 405.915 837.253C399.501 811.322 392.763 785.447 386.743 759.417C385.632 754.692 384.197 750.052 383.016 745.341Z" fill="#328DC0"/>
<path d="M1751.81 746.086C1768.61 772.453 1785.26 798.848 1802.1 825.173C1803.98 828.183 1805.67 831.305 1807.35 834.427C1805.88 835.214 1804.41 835.987 1802.92 836.733C1759 850.823 1715.62 866.419 1671.79 880.833C1685.38 856.758 1700.23 833.414 1714.1 809.508C1726.83 788.484 1739.25 767.222 1751.81 746.086Z" fill="#328FC1"/>
<path d="M763.246 750.994C753.526 774.295 743.511 797.47 733.749 820.758C732.216 824.372 730.5 827.916 728.742 831.431C725.113 828.872 721.526 826.242 718.108 823.388C690.651 800.634 662.435 778.795 635.161 755.831C639.761 755.536 644.374 754.763 648.974 754.313C657.864 753.427 666.781 754.017 675.685 753.131C681.621 752.541 687.486 752.273 693.45 752.358C703.831 752.611 714.015 750.67 724.395 750.909C738.025 751.162 750.474 747.098 763.246 750.994Z" fill="#338FC2"/>
<path d="M772.459 749.067C784.64 751.022 796.99 751.837 809.298 753.145C840.932 756.408 872.665 759.094 904.243 762.694C912.472 763.2 920.686 762.075 928.943 762.637C924.09 763.242 919.251 763.903 914.385 764.381C923.007 783.07 931.601 801.788 940.392 820.392C943.417 827.564 946.328 834.525 951.364 840.586L950.478 841.388C947.032 846.647 946.371 854.072 944.654 860.091C938.733 881.873 933.106 903.727 927.086 925.481C921.741 945.056 917.043 964.912 911.304 984.333C910.052 988.509 909.11 992.756 908.969 997.144L909.208 998.48C901.5 996.089 892.807 995.822 884.776 995.02C853.367 991.814 821.873 989.241 790.464 985.936C790.632 978.891 791.026 971.873 792.334 964.941C794.219 955.069 794.487 945.042 796.231 935.156C798.284 918.661 800 902.067 802.673 885.656C803.081 882.45 802.603 879.314 801.745 876.22C791.941 843.314 782.432 810.323 772.572 777.417C769.857 768.572 767.832 759.206 764.428 750.656C767.072 749.953 769.759 749.433 772.459 749.067Z" fill="#3087B7"/>
<path d="M764.428 750.656C767.832 759.206 769.857 768.572 772.572 777.417C782.432 810.323 791.941 843.314 801.745 876.22C802.603 879.314 803.081 882.45 802.673 885.656C800 902.067 798.284 918.661 796.231 935.156C794.487 945.042 794.219 955.069 792.334 964.941C791.026 971.873 790.632 978.891 790.464 985.936C790.281 1004.19 790.337 1022.41 791.8 1040.62C791.955 1053.82 792.278 1066.85 793.375 1080H671.396C666.81 1077.16 662.478 1073.8 658.16 1070.56C653.011 1058.02 646.836 1046.01 641.351 1033.62C631.322 1013.82 623.304 992.953 613.247 973.139C611.264 969.202 609.773 965.081 608.366 960.919C599.842 936.281 592.289 911.363 584.454 886.5C579.967 872.916 575.452 859.359 571.541 845.592C571.148 844.214 570.74 842.85 570.304 841.486C591.389 812.925 612.305 784.209 633.6 755.789L635.162 755.831C662.436 778.795 690.652 800.634 718.109 823.388C721.527 826.242 725.113 828.872 728.742 831.431C730.501 827.916 732.217 824.372 733.75 820.758C743.512 797.47 753.527 774.295 763.246 750.994L764.428 750.656Z" fill="#2F84B3"/>
<path d="M633.6 755.789C612.304 784.209 591.388 812.925 570.303 841.486C567.588 836.972 564.03 832.866 560.921 828.605C548.431 811.561 535.701 794.714 523.253 777.656C520.313 773.677 517.373 769.627 514.166 765.858C520.932 764.887 527.655 763.819 534.505 763.481C559.908 761.372 585.297 759.136 610.715 757.167C618.352 756.394 625.892 755.409 633.6 755.789Z" fill="#3290C2"/>
<path d="M1012.23 757.603C1017.14 757.772 1022.03 758.067 1026.93 758.18C1035.21 788.344 1043.75 818.494 1051.5 848.798L1051.25 849.825C1040.72 848.798 1030.33 847.209 1019.78 846.605C1008.48 846.014 997.302 844.355 986.007 843.652C974.375 842.92 962.925 840.698 951.363 840.586C946.327 834.525 943.416 827.564 940.392 820.392C931.6 801.788 923.006 783.07 914.384 764.381C919.251 763.903 924.089 763.242 928.942 762.638C956.694 760.838 984.46 759.192 1012.23 757.603Z" fill="#2E83B1"/>
<path d="M244.888 761.892C247.771 767.447 248.854 774.014 250.767 779.963C259.291 807.68 267.604 835.467 276.142 863.17C277.141 866.63 277.591 870.159 277.985 873.717C239.838 866.475 201.41 860.428 163.207 853.397C155.85 851.963 149.38 853.777 142.234 855.211C112.766 860.934 83.3403 866.784 53.8441 872.395L53.3096 871.369C72.4392 845.55 91.161 819.436 110.052 793.448C114.792 786.783 120.081 781.397 123.259 773.859C123.597 773.072 123.921 772.284 124.244 771.497C126.34 772.383 128.408 773.592 130.757 773.536C138.366 773.395 145.962 771.834 153.557 771.202C169.761 769.781 185.811 767.208 202.015 765.802C213.9 764.311 225.842 763.72 237.658 761.822C239.866 761.653 242.82 760.936 244.888 761.892Z" fill="#328EC0"/>
<path d="M1640.76 761.709C1644.05 770.034 1645.1 778.683 1647.36 787.275C1653.62 810.858 1659.09 834.638 1664.84 858.347C1666.88 866.18 1667.7 873.675 1671.79 880.833C1715.62 866.419 1759 850.824 1802.92 836.733C1804.77 836.438 1806.61 836.184 1808.47 835.988C1813.7 852.652 1817.59 869.709 1822.54 886.458C1832.62 923.583 1843.13 960.623 1852.92 997.833C1848.71 995.639 1844.55 993.361 1840.58 990.745C1828.04 982.505 1814.96 975.15 1802.27 967.106C1793.97 962.325 1786.78 956.644 1777.82 953.086C1779.93 962.888 1783.29 972.394 1785.95 982.069C1792.91 1003.12 1798.46 1024.59 1805.33 1045.67C1809.08 1057.06 1812.17 1068.68 1816.11 1080H1520.01C1498.32 1071.52 1475.12 1067.13 1453.38 1058.91C1455.47 1053.24 1457.75 1047.7 1460.28 1042.21C1467.36 1026.63 1473.83 1010.83 1480.68 995.161C1482.89 990 1486.02 984.389 1486.56 978.792C1487.16 972.745 1486.7 966.544 1486.73 960.469C1486.76 937.969 1486.56 915.469 1486.78 892.969C1486.69 889.284 1486.8 885.923 1484.65 882.759C1486.38 881.17 1488.53 880.65 1490.74 880.003C1518.26 874.069 1545.94 868.894 1573.46 862.903C1581.62 861.23 1589.84 859.88 1597.99 858.15C1600.76 857.475 1604.04 856.87 1606.41 855.197C1608.23 852.525 1609.23 849.178 1610.31 846.141C1614.28 833.949 1618.85 821.953 1623.21 809.873C1629.13 793.884 1634.19 777.445 1640.76 761.709Z" fill="#2F85B4"/>
<path d="M512.774 765.942L514.166 765.858C517.373 769.627 520.313 773.677 523.253 777.656C535.701 794.714 548.431 811.561 560.922 828.605C564.03 832.866 567.589 836.972 570.304 841.486C570.74 842.85 571.148 844.214 571.541 845.592L570.093 846.478C569.642 845.114 569.192 843.736 568.742 842.372C564.621 842.892 560.514 843.497 556.463 844.425C517.95 853.087 479.325 861.061 440.784 869.611C432.246 871.298 423.68 873.773 415.03 874.659L414.875 873.872C420.122 868.894 424.848 863.817 429.518 858.305C436.593 850.852 443.288 843.047 450.265 835.509C457.017 828.113 463.135 820.308 470.168 813.164C479.311 803.953 487.019 793.547 496.176 784.336C502.056 778.486 506.993 771.848 512.774 765.942Z" fill="#308ABB"/>
<path d="M1182.86 819.858C1203.65 861.75 1225.47 903.094 1246.38 944.902C1250.31 952.608 1254.55 960.117 1258.16 967.978C1257.31 968.948 1256.45 969.891 1255.55 970.805C1247.42 970.327 1240.42 973.167 1232.71 975.108C1203.35 981.942 1174.25 989.93 1144.91 996.82C1139.75 998.142 1135.26 999.07 1132.49 1004.12C1116.72 1029.43 1100.55 1054.49 1085.09 1080H1048.59C1035.89 1072.88 1022.69 1066.84 1009.5 1060.71C994.419 1053.37 979.312 1045.88 963.924 1039.23C966.245 1052.94 970.043 1066.44 973.194 1080H813.433C831.789 1074.07 850.398 1069.16 869.035 1064.21C899.966 1055.04 931.657 1047.68 962.447 1038.22C968.538 1031.68 972.926 1023.13 977.99 1015.72C992.211 994.725 1006.05 973.448 1020.33 952.509C1023 948.572 1024.51 944.156 1025.74 939.6C1029.96 923.906 1034.96 908.452 1039.28 892.786C1043.09 879.117 1047.81 865.561 1050.78 851.723C1057.43 848.194 1064.57 846.773 1071.84 845.198C1084.1 842.709 1096.05 838.983 1108.32 836.522C1125.47 832.838 1142.45 828.45 1159.55 824.527C1167.51 822.642 1174.55 819.928 1182.86 819.858Z" fill="#2D82B0"/>
<path d="M1182.86 819.858C1190.77 822.192 1198.24 826.27 1205.82 829.491C1238.15 843.511 1270.15 858.291 1302.6 872.044L1302.96 873.309C1301.25 878.133 1299.05 882.689 1296.82 887.273C1283.93 913.852 1271.73 940.922 1258.59 967.345L1258.16 967.978C1254.56 960.117 1250.31 952.608 1246.38 944.901C1225.47 903.094 1203.65 861.75 1182.86 819.858Z" fill="#328EC0"/>
<path d="M1818.78 836.241C1837.73 838.856 1856.62 841.669 1875.52 844.537C1890.36 846.886 1905.3 848.18 1920 851.161V931.964C1902.18 949.5 1884.74 967.219 1867.03 984.881C1862.62 989.55 1858.15 994.064 1852.92 997.833C1843.13 960.623 1832.62 923.583 1822.54 886.458C1817.59 869.709 1813.7 852.652 1808.47 835.987C1811.9 835.777 1815.36 835.833 1818.78 836.241Z" fill="#328DBE"/>
<path d="M950.477 841.388C957.088 852.413 965.036 862.467 971.956 873.281C982.491 889.397 993.772 904.978 1004.29 921.108C1010.06 930.037 1016.77 938.222 1022.14 947.405C1017.66 950.175 1013.04 952.664 1008.15 954.605C995.882 959.583 983.659 964.673 971.548 970.031C950.97 979.284 929.181 987.173 908.969 997.144C909.109 992.756 910.052 988.509 911.304 984.333C917.043 964.912 921.741 945.056 927.086 925.481C933.106 903.727 938.732 881.873 944.654 860.091C946.37 854.072 947.031 846.647 950.477 841.388Z" fill="#318DBE"/>
<path d="M950.477 841.388L951.364 840.586C962.926 840.698 974.375 842.92 986.008 843.652C997.303 844.355 1008.49 846.014 1019.78 846.605C1030.33 847.209 1040.72 848.798 1051.25 849.825L1050.78 851.723C1047.81 865.561 1043.09 879.117 1039.28 892.786C1034.96 908.452 1029.96 923.906 1025.74 939.6C1024.51 944.156 1023 948.572 1020.33 952.51C1006.05 973.449 992.211 994.725 977.99 1015.72C972.927 1023.13 968.538 1031.68 962.447 1038.22C944.935 1024.66 926.593 1012.18 909.208 998.48L908.969 997.144C929.181 987.174 950.97 979.284 971.548 970.031C983.659 964.674 995.882 959.583 1008.15 954.605C1013.04 952.664 1017.66 950.175 1022.14 947.405C1016.77 938.222 1010.06 930.038 1004.29 921.108C993.772 904.978 982.491 889.397 971.956 873.281C965.036 862.467 957.088 852.413 950.477 841.388Z" fill="#3088B8"/>
<path d="M568.742 842.372C569.192 843.736 569.642 845.114 570.092 846.478C566.843 853.805 565.535 862.411 563.735 870.258C555.97 905.048 547.896 939.769 540.216 974.587C538.135 983.545 535.968 992.461 534.379 1001.52L534.041 1002.88L533.563 1002.45C526.938 995.822 521.466 988.214 514.476 981.9C507.302 975.389 501.535 967.697 494.769 960.82C487.793 954.141 482.138 946.322 475.077 939.727C468.283 933.328 462.882 925.734 456.116 919.308C451.291 914.709 446.664 909.97 442.402 904.823C437.338 898.692 431.247 893.573 426.142 887.484C422.85 883.561 419.559 879.68 415.761 876.234C413.735 880.242 412.104 884.433 410.81 888.736C407.42 899.916 404.283 911.18 400.865 922.345C397.939 931.627 396.026 941.063 392.172 950.048C390.386 950.316 388.586 950.555 386.785 950.766C355.882 948.164 324.909 945.956 293.978 943.608C282.993 943.13 273.09 941.147 262.372 942.103C255.789 942.483 249.262 942.961 242.806 944.381C209.822 950.906 176.415 955.533 143.515 962.409C144.949 965.883 146.412 969.328 148.086 972.689C159.676 995.414 170.887 1018.34 182.421 1041.08C189.398 1053.93 195.91 1067.02 202.634 1080H0V1063.01C12.7719 1063.84 25.2484 1061.89 37.978 1061.49C45.1095 1061.06 52.2409 1060.58 59.3582 1060.03C63.353 1057.06 66.2787 1053.37 69.4154 1049.54C86.2664 1029.39 103.075 1009.11 119.884 988.917C127.128 980.227 134.752 971.775 141.56 962.747L140.842 961.917C138.859 959.611 136.862 957.319 134.724 955.153C111.909 932.498 89.2062 909.717 66.4615 886.992C61.7354 882.253 56.8123 878.611 53.8444 872.395C83.3407 866.784 112.767 860.934 142.235 855.211C149.38 853.777 155.851 851.962 163.207 853.397C201.41 860.428 239.838 866.475 277.985 873.717C293.64 873.169 309.254 873.436 324.923 873.323C335.276 873.309 345.502 874.955 355.868 874.716C375.589 874.491 395.323 874.997 415.029 874.659C423.68 873.773 432.246 871.298 440.784 869.611C479.325 861.061 517.95 853.087 556.462 844.425C560.513 843.497 564.621 842.892 568.742 842.372Z" fill="#2E82B0"/>
<path d="M0 844.777C7.42681 850.078 15.8242 853.678 23.9121 857.813C32.8299 862.298 41.2554 867.572 50.3842 871.636C50.5811 870.145 50.778 868.655 50.9468 867.164C51.7345 868.57 52.5222 869.977 53.3099 871.369L53.8444 872.395C56.8123 878.611 61.7354 882.253 66.4615 886.992C89.2062 909.717 111.909 932.498 134.724 955.153C136.862 957.319 138.859 959.611 140.842 961.917C105.621 960.23 70.4 957.881 35.1648 955.983C23.4338 955.111 11.6747 954.97 0 953.634V844.777Z" fill="#2F87B6"/>
<path d="M570.092 846.478L571.541 845.592C575.451 859.359 579.967 872.916 584.454 886.5C592.288 911.363 599.842 936.281 608.366 960.919C605.299 966.319 600.236 967.767 595.003 970.341C584.229 975.277 574.284 981.675 563.58 986.738C553.874 991.702 543.916 996.23 534.379 1001.52C535.968 992.461 538.135 983.545 540.216 974.587C547.896 939.769 555.97 905.048 563.735 870.258C565.535 862.411 566.843 853.805 570.092 846.478Z" fill="#318CBD"/>
<path d="M1318.34 885.572C1349.56 913.162 1380.63 940.95 1411.81 968.583C1407.72 975.333 1402.82 980.705 1397.31 986.287C1383.81 1002.33 1369.49 1017.66 1356.03 1033.75C1348.66 1041.45 1341.92 1049.58 1335.05 1057.71C1328.15 1064.87 1321.85 1072.48 1315.38 1080H1298.06C1292.72 1063.31 1286.19 1047.07 1280.45 1030.51C1276.48 1018.24 1271.62 1006.28 1267.52 994.05C1264.57 985.106 1260.86 976.514 1258.59 967.345C1271.73 940.922 1283.92 913.852 1296.82 887.273C1299.05 882.689 1301.25 878.133 1302.96 873.309C1308.75 876.614 1313.45 881.1 1318.34 885.572Z" fill="#2D81AD"/>
<path d="M415.761 876.234C419.559 879.68 422.85 883.561 426.142 887.484C431.248 893.573 437.338 898.692 442.402 904.823C446.664 909.97 451.291 914.709 456.116 919.308C462.882 925.734 468.283 933.328 475.077 939.727C482.138 946.322 487.793 954.141 494.769 960.82C501.535 967.697 507.302 975.389 514.476 981.9C521.466 988.214 526.938 995.822 533.563 1002.45C506.261 1024.57 479.297 1047.09 451.967 1069.2C447.578 1072.67 443.485 1076.47 439.139 1080H430.502C419.798 1042.68 408.447 1005.53 397.419 968.302C395.844 962.859 394.353 957.473 392.355 952.158C391.582 952.973 390.836 953.803 390.105 954.661C388.993 953.367 387.882 952.059 386.785 950.766C388.586 950.555 390.386 950.316 392.172 950.048C396.026 941.063 397.939 931.627 400.865 922.345C404.283 911.18 407.42 899.916 410.81 888.736C412.104 884.433 413.735 880.242 415.761 876.234Z" fill="#3088B8"/>
<path d="M1484.65 882.759C1486.8 885.923 1486.68 889.284 1486.78 892.969C1486.56 915.469 1486.76 937.969 1486.73 960.469C1486.7 966.544 1487.16 972.745 1486.56 978.792C1486.02 984.389 1482.89 990 1480.68 995.161C1473.83 1010.83 1467.36 1026.63 1460.28 1042.21C1457.75 1047.7 1455.47 1053.24 1453.38 1058.91C1475.12 1067.13 1498.32 1071.52 1520.01 1080H1363.38C1373.51 1077.26 1383.57 1074.81 1393.86 1072.8C1413.13 1068.4 1432.36 1063.88 1451.67 1059.69C1447.58 1046.94 1441.25 1034.8 1435.91 1022.51C1429.86 1008.13 1423.04 994.05 1416.86 979.706C1415.19 975.684 1414.05 971.522 1412.94 967.317C1415.82 964.42 1418.72 961.552 1421.32 958.388C1442.56 932.808 1463.36 908.255 1484.65 882.759Z" fill="#2D80AD"/>
<path d="M1920 931.964V1080H1816.11C1812.17 1068.68 1809.08 1057.06 1805.34 1045.67C1798.46 1024.59 1792.91 1003.12 1785.95 982.069C1783.29 972.394 1779.93 962.887 1777.82 953.086C1786.78 956.644 1793.97 962.325 1802.27 967.106C1814.96 975.15 1828.04 982.505 1840.58 990.745C1844.55 993.361 1848.71 995.639 1852.92 997.833C1858.15 994.064 1862.63 989.55 1867.03 984.881C1884.74 967.219 1902.18 949.5 1920 931.964Z" fill="#2D7FAC"/>
<path d="M293.978 943.608C324.909 945.956 355.882 948.164 386.785 950.766C387.882 952.059 388.994 953.367 390.105 954.661C372.635 982.266 355.939 1010.49 338.469 1038.11C321.758 1017.83 305.695 996.919 289.322 976.359C280.405 964.898 271.163 953.677 262.372 942.103C273.09 941.147 282.993 943.13 293.978 943.608Z" fill="#318ABB"/>
<path d="M262.372 942.103C271.163 953.677 280.404 964.898 289.322 976.359C305.695 996.919 321.758 1017.83 338.468 1038.11L339.101 1038.68C339.692 1052.56 342.604 1066.13 343.42 1080H202.634C195.91 1067.02 189.398 1053.93 182.421 1041.08C170.887 1018.34 159.676 995.414 148.086 972.689C146.412 969.328 144.949 965.883 143.515 962.409C176.415 955.533 209.821 950.906 242.806 944.381C249.262 942.961 255.789 942.483 262.372 942.103Z" fill="#2C7FAC"/>
<path d="M392.355 952.158C394.353 957.473 395.844 962.859 397.419 968.302C408.447 1005.52 419.798 1042.68 430.502 1080H421.205C394.1 1065.74 366.474 1052.41 339.102 1038.68L338.469 1038.11C355.939 1010.49 372.635 982.266 390.105 954.661C390.836 953.803 391.582 952.973 392.355 952.158Z" fill="#2C7DA9"/>
<path d="M0 953.634C11.6747 954.97 23.4338 955.111 35.1648 955.983C70.4 957.881 105.621 960.23 140.842 961.917L141.56 962.747C134.752 971.775 127.128 980.227 119.884 988.917C103.075 1009.11 86.2664 1029.39 69.4154 1049.54C66.2787 1053.37 63.353 1057.06 59.3582 1060.03C55.4198 1054.15 51.4954 1048.28 47.3178 1042.55C34.0818 1024.33 21.4365 1005.68 8.27077 987.398C5.45758 983.433 2.5178 979.467 0 975.305V953.634Z" fill="#2D7EAA"/>
<path d="M608.365 960.919C609.772 965.081 611.263 969.202 613.246 973.139C623.303 992.953 631.321 1013.82 641.35 1033.62C646.836 1046.01 653.011 1058.02 658.159 1070.56C642.813 1068.79 627.27 1068.51 611.868 1067.41C605.665 1066.84 597.071 1067.74 592.372 1062.94C572.511 1043.37 554.071 1022.29 534.041 1002.88L534.379 1001.52C543.915 996.23 553.874 991.702 563.579 986.737C574.284 981.675 584.228 975.277 595.003 970.341C600.235 967.767 605.299 966.319 608.365 960.919Z" fill="#3087B8"/>
<path d="M1258.16 967.978L1258.59 967.345C1260.86 976.514 1264.57 985.106 1267.52 994.05C1271.62 1006.28 1276.48 1018.24 1280.45 1030.51C1286.19 1047.07 1292.72 1063.31 1298.06 1080H1161.33C1163.31 1072.48 1164.32 1064.9 1165.57 1057.25C1166.29 1053.77 1166.49 1050.62 1169.3 1048.12C1184.77 1034.51 1199.91 1020.56 1215.48 1007.04C1228.42 994.486 1242.54 983.264 1255.55 970.805C1256.45 969.891 1257.31 968.948 1258.16 967.978Z" fill="#2E84B2"/>
<path d="M1411.81 968.583L1412.94 967.317C1414.05 971.522 1415.19 975.684 1416.86 979.706C1423.04 994.05 1429.86 1008.13 1435.91 1022.51C1441.25 1034.8 1447.58 1046.94 1451.67 1059.69C1432.36 1063.88 1413.13 1068.4 1393.86 1072.8C1383.57 1074.81 1373.51 1077.26 1363.38 1080H1315.38C1321.85 1072.48 1328.15 1064.87 1335.05 1057.71C1341.92 1049.58 1348.65 1041.45 1356.03 1033.75C1369.49 1017.66 1383.81 1002.33 1397.31 986.287C1402.82 980.705 1407.72 975.333 1411.81 968.583Z" fill="#2F85B4"/>
<path d="M1255.55 970.805C1242.54 983.264 1228.42 994.486 1215.48 1007.04C1199.91 1020.56 1184.77 1034.51 1169.3 1048.12C1166.49 1050.62 1166.29 1053.77 1165.57 1057.25C1164.32 1064.9 1163.31 1072.48 1161.33 1080H1085.09C1100.55 1054.49 1116.72 1029.43 1132.49 1004.12C1135.26 999.07 1139.75 998.142 1144.91 996.82C1174.25 989.93 1203.35 981.942 1232.71 975.108C1240.42 973.167 1247.42 970.326 1255.55 970.805Z" fill="#2C7CA8"/>
<path d="M0 975.305C2.5178 979.467 5.45758 983.433 8.27077 987.398C21.4365 1005.68 34.0818 1024.33 47.3178 1042.55C51.4954 1048.27 55.4198 1054.15 59.3582 1060.03C52.2409 1060.58 45.1095 1061.06 37.978 1061.49C25.2484 1061.89 12.7719 1063.84 0 1063.01V975.305Z" fill="#2F86B5"/>
<path d="M790.463 985.936C821.872 989.241 853.366 991.814 884.775 995.02C892.807 995.822 901.499 996.089 909.208 998.48C926.593 1012.18 944.935 1024.66 962.447 1038.22C931.657 1047.68 899.966 1055.04 869.035 1064.21C850.398 1069.16 831.789 1074.07 813.433 1080H793.375C792.277 1066.85 791.954 1053.82 791.799 1040.62C790.336 1022.41 790.28 1004.19 790.463 985.936Z" fill="#2C7EAA"/>
<path d="M533.563 1002.45L534.042 1002.88C554.071 1022.29 572.512 1043.37 592.373 1062.94C597.071 1067.74 605.665 1066.84 611.868 1067.41C627.271 1068.51 642.813 1068.79 658.159 1070.56C662.478 1073.8 666.81 1077.16 671.395 1080H581.781C586.367 1076.05 590.347 1071.52 593.948 1066.65C590.544 1066.87 587.14 1067.19 583.751 1067.58C557.503 1070.79 531.214 1073.74 504.953 1076.84C497.512 1077.54 490.184 1078.72 482.827 1080H439.139C443.485 1076.47 447.578 1072.67 451.967 1069.2C479.297 1047.09 506.261 1024.57 533.563 1002.45Z" fill="#2C7DA9"/>
<path d="M339.102 1038.68C366.474 1052.41 394.099 1065.74 421.204 1080H343.42C342.604 1066.13 339.692 1052.56 339.102 1038.68Z" fill="#2F85B4"/>
<path d="M963.924 1039.23C979.312 1045.88 994.419 1053.37 1009.5 1060.71C1022.69 1066.84 1035.89 1072.88 1048.59 1080H973.193C970.043 1066.44 966.245 1052.94 963.924 1039.23Z" fill="#2C7CA7"/>
<path d="M593.948 1066.65C590.347 1071.52 586.366 1076.05 581.781 1080H482.827C490.184 1078.72 497.512 1077.54 504.953 1076.84C531.214 1073.74 557.503 1070.79 583.75 1067.58C587.14 1067.19 590.544 1066.87 593.948 1066.65Z" fill="#3087B6"/>
<rect opacity="0.25" x="1" width="1920" height="1080" fill="#0C6899"/>
</svg>
